<?xml version="1.0" encoding="UTF-8"?>
<svg width="512" height="512" viewBox="0 0 512 512" fill="none" xmlns="http://www.w3.org/2000/svg">
  <path d="M245.9 324.7C239.9 320.7 239.1 312.7 244.1 307.4C246.3 305.1 246.3 305.1 242.1 283.8C239.7 272.1 236.5 255.9 234.8 247.8C231.7 233.2 231.7 233.2 222.8 232.8C213.1 232.5 212 231.9 212 226.3C212 220.7 213.7 220 227.5 220C241.8 220 242.2 220.3 243.5 229.3C244.2 234 244.2 234 287.1 234C328.6 234 330 234.1 331 236C331.8 237.4 330.9 243.2 327.1 260.3C324.3 272.6 321.8 283.3 321.5 284.2C321.1 285.1 319.9 286.1 318.7 286.4C317.5 286.7 302.9 287 286.2 287C255.9 287 255.9 287 256.2 290.3C256.5 293.5 256.5 293.5 286.3 294C319.4 294.6 318.5 294.3 317.6 301.4C317.2 304.5 317.6 305.6 319.6 307.4C325 312.1 324.2 320.6 318.1 324.7C314.1 327.4 312 327.6 307.6 325.5C301.7 322.7 299.5 315.9 302.5 310C304.1 307 304.1 307 282 307C259.9 307 259.9 307 261.5 310C264.5 315.9 262.3 322.7 256.4 325.5C252 327.6 249.9 327.4 245.9 324.7Z" fill="#073A7C"/>
</svg>