<svg width="192" height="192" viewBox="0 0 192 192" fill="none" xmlns="http://www.w3.org/2000/svg">
<path d="M164.596 108.176L164.596 168.919C164.596 171.108 163.842 173.002 162.333 174.601C160.825 176.2 159.038 177 156.974 177H116.244C113.482 177 111.244 174.761 111.244 172V133.514C111.244 130.752 109.005 128.514 106.244 128.514H85.7564C82.995 128.514 80.7564 130.752 80.7564 133.514V172C80.7564 174.761 78.5179 177 75.7564 177H35.0258C32.9615 177 31.1752 176.2 29.6667 174.601C28.1582 173.002 27.404 171.108 27.404 168.919V108.311C27.404 108.227 27.4238 108.101 27.4635 107.932V107.932C27.5196 107.695 27.6285 107.461 27.8123 107.301L92.7096 50.5789C94.594 48.9319 97.406 48.9319 99.2904 50.579L163.996 107.133C164.312 107.409 164.517 107.764 164.596 108.176V108.176ZM191.153 99.5986L183.77 108.942C183.134 109.7 182.301 110.163 181.269 110.331H180.911C179.879 110.331 179.046 110.037 178.41 109.447L99.3117 39.5193C97.4205 37.8473 94.5796 37.8473 92.6883 39.5193L13.5895 109.447C12.6368 110.121 11.6841 110.415 10.7314 110.331C9.69924 110.163 8.86561 109.7 8.23046 108.942L0.846864 99.5986C0.211716 98.7568 -0.0661613 97.7677 0.0132323 96.6313C0.0926258 95.4949 0.52929 94.59 1.32323 93.9166L86.9491 18.2829C89.4897 16.0943 92.5067 15 96 15C99.4933 15 102.51 16.0943 105.051 18.2829L132.446 42.5668C133.091 43.1388 134.109 42.6807 134.109 41.8185V19.4193C134.109 18.2408 134.466 17.2728 135.181 16.5152C135.895 15.7576 136.808 15.3788 137.92 15.3788H160.785C161.897 15.3788 162.81 15.7576 163.524 16.5152C164.239 17.2728 164.596 18.2408 164.596 19.4193V68.6777C164.596 70.1134 165.213 71.4799 166.29 72.4291L190.677 93.9166C191.471 94.59 191.907 95.4949 191.987 96.6313C192.066 97.7677 191.788 98.7568 191.153 99.5986Z" fill="#1F456E"/>
</svg>
