<?xml version="1.0" encoding="utf-8"?>
<!DOCTYPE svg PUBLIC "-//W3C//DTD SVG 1.0//EN" "http://www.w3.org/TR/2001/REC-SVG-20010904/DTD/svg10.dtd">
<svg version="1.0" xmlns="http://www.w3.org/2000/svg" viewBox="0 0 1031 1031" preserveAspectRatio="xMidYMid meet">
 <g fill="#001c53">
  <path d="M492 665.8 c-5.2 -0.5 -9.9 -1.4 -10.5 -1.9 -0.6 -0.6 -0.9 -8 -0.7 -18.7 0.2 -9.7 -0.1 -18.2 -0.5 -18.9 -1.1 -1.5 -13.2 -3.5 -15.1 -2.4 -1.6 0.9 -4.3 5.6 -9.6 16.6 -1.8 3.9 -4.5 8.7 -5.9 10.8 -1.4 2.1 -2.7 4.3 -2.9 4.9 -0.5 1.4 -7.7 -0.3 -15.9 -3.8 -3.1 -1.3 -6.2 -2.4 -6.8 -2.4 -0.7 0 -3.2 -0.9 -5.7 -2 -3.8 -1.8 -4.4 -2.4 -3.9 -4.5 0.3 -1.4 0.7 -3.6 1 -4.9 0.9 -4.6 3.6 -24.5 3.7 -28.1 0.1 -2.2 -0.5 -4.3 -1.5 -5.2 -2.6 -2.7 -5.7 -0.2 -18.5 14.4 -6.4 7.3 -12.3 13.3 -13.2 13.3 -2 0 -7.7 -2.7 -8.6 -4.1 -0.3 -0.5 -2.6 -2 -5.2 -3.3 -9.2 -4.7 -9 -4.1 -4.3 -13.7 2.3 -4.6 5.7 -11.1 7.6 -14.4 5 -8.8 4.7 -10.4 -2.6 -16.1 -6.8 -5.2 -9.2 -5.6 -14.1 -2.6 -1.8 1.2 -5.8 3.5 -8.9 5.1 -3.1 1.7 -6.3 3.6 -7 4.3 -1.3 1.3 -11.3 6.8 -12.3 6.8 -0.7 0 -23.6 -23.1 -23.6 -23.9 0 -0.3 4.9 -5.6 11 -11.6 6 -6 11 -11.7 11 -12.7 0 -0.9 -1 -2.8 -2.3 -4 -4.8 -5 -8.6 -10.1 -8.1 -10.9 0.7 -1.1 -11 -0.3 -13.4 1 -3 1.6 -17 4.3 -20.5 3.9 -2.3 -0.2 -3.8 -1.3 -5.9 -4.3 -1.5 -2.2 -2.6 -4.8 -2.4 -5.7 0.2 -0.9 -0.1 -1.5 -0.8 -1.2 -1.3 0.5 -3.8 -4.5 -2.9 -5.9 0.3 -0.6 0.2 -0.8 -0.3 -0.4 -0.5 0.3 -2.4 -2.1 -4.1 -5.4 -3.2 -5.9 -3.2 -5.9 0.1 -5.9 3 0 3.6 0.5 6.5 5.9 1.7 3.2 3.1 7.1 3.1 8.5 0 1.6 0.5 2.6 1.5 2.6 0.8 0 1.5 0.9 1.5 2 0 1.1 0.6 2 1.4 2 0.8 0 1.6 0.5 1.8 1.2 0.3 0.9 1.5 0.9 5 0 2.6 -0.7 5.9 -1.2 7.3 -1.2 1.4 0 3.9 -0.7 5.6 -1.5 4.1 -2.1 16.9 -1.1 19.8 1.6 1.1 1.1 2.4 1.9 2.9 1.9 0.6 0 1.8 1.2 2.8 2.7 0.9 1.6 2.5 3.5 3.4 4.3 0.9 0.8 2.2 2.5 2.8 3.6 0.9 1.8 2.4 2.2 8.9 2.8 7.3 0.6 7.9 0.9 9.5 3.6 1.5 2.7 2.2 3 6.7 3 2.7 0 5.2 0.4 5.5 0.9 0.3 0.4 3.4 1.1 6.8 1.4 7.4 0.7 12.8 2.6 12.8 4.4 0 0.7 1.1 1.3 2.5 1.3 1.7 0 2.5 0.6 2.5 1.8 0.1 2.4 2.4 5.2 4.4 5.2 0.9 0 2.1 1.2 2.7 2.8 0.7 1.5 1.3 2.2 1.6 1.5 0.3 -0.7 1.3 -1.3 2.4 -1.3 1.1 0 1.9 -0.7 1.9 -1.6 0 -3.1 2.7 -4.4 9.4 -4.4 6 0 6.9 0.3 9.8 3 3.7 3.6 7.2 3.8 12.5 1 5.3 -2.8 16.5 -2.8 19.3 0 1.1 1.1 2 2.6 2 3.4 0 1.5 3.2 2.3 13.2 3.3 4.3 0.4 6.8 1 6.8 1.8 0 0.7 1.7 2 3.8 2.9 3.5 1.6 4.2 1.6 8.3 0.2 2.4 -0.9 7 -1.6 10.2 -1.6 3.1 0 5.7 -0.4 5.7 -0.9 0 -0.5 3.5 -1.2 7.8 -1.5 4.2 -0.2 9.6 -0.8 12 -1.1 2.8 -0.5 4.2 -0.3 4.2 0.4 0 2.2 18 0.5 18.8 -1.8 0.2 -0.6 0.8 -1.1 1.4 -1.1 0.5 0 2.1 -0.9 3.5 -2 3 -2.4 8.8 -2.6 10.9 -0.5 0.8 0.8 3.3 1.9 5.4 2.5 2.2 0.6 4.2 1.5 4.5 2 0.7 1.1 7.4 1.3 9.9 0.4 0.9 -0.3 1.6 -1.3 1.6 -2.1 0 -1.2 1.1 -1.4 5.5 -1.1 4.4 0.2 5.5 0 5.5 -1.2 0 -2.5 5 -4 13.7 -4 4.9 0 8.3 -0.4 8.3 -1 0 -0.5 2 -1 4.5 -1 2.5 0 4.5 -0.4 4.5 -0.9 0 -0.5 0.9 -1.2 1.9 -1.6 1 -0.3 2.1 -1.4 2.4 -2.4 0.3 -1.4 2.1 -2.1 7.3 -3 3.8 -0.7 7.9 -1.9 9.1 -2.7 1.2 -0.8 4.5 -1.4 7.3 -1.4 3 0 5 -0.4 5 -1.1 0 -0.7 1.7 -0.9 5 -0.5 2.8 0.3 7.2 0.9 9.9 1.2 4.4 0.5 5 0.4 5.6 -1.5 0.5 -1.7 1.5 -2.1 4.6 -2.1 2.8 0 3.9 0.4 3.9 1.5 0 0.8 1.1 1.7 2.5 2.1 1.4 0.3 2.5 1 2.5 1.5 0 0.5 0.7 0.9 1.5 0.9 0.8 0 1.5 -0.4 1.5 -1 0 -0.5 1.6 -1 3.5 -1 3.5 0 3.5 0 3.5 -5.7 0.1 -7.3 1.5 -9.1 7.5 -10 4.8 -0.6 4.8 -0.6 2.2 3.2 -1.4 2 -2.3 4.4 -2 5.1 0.3 0.8 5.4 6.2 11.4 12.1 6 5.9 10.9 11.1 10.9 11.4 0 0.4 -2.4 3.1 -5.2 6.1 -2.9 3.1 -8.1 8.6 -11.6 12.4 -6.1 6.6 -6.4 6.8 -8.7 5.4 -3.1 -2 -18.9 -13.2 -19.5 -13.9 -0.3 -0.3 -1.4 -1.2 -2.5 -1.9 -1.1 -0.7 -3.3 -2.1 -5 -3.2 -3.7 -2.5 -7.3 -2.5 -9.4 -0.2 -0.9 1 -3 2.7 -4.8 3.7 -5.3 3.1 -5.7 5.5 -2.1 12.2 1.7 3.2 4.1 7.1 5.4 8.6 1.3 1.6 2.4 3.4 2.4 4 0 0.7 1.8 3.9 4 7.2 2.2 3.3 4 6.5 4 7.2 0 0.7 -1.3 1.9 -2.9 2.8 -1.6 0.8 -3.5 2.1 -4.3 2.8 -0.7 0.7 -4.2 2.7 -7.6 4.5 -8.3 4.1 -6.9 4.9 -24.7 -15.8 -6.3 -7.3 -8.3 -9 -11 -9 -4.6 0 -5.2 2.4 -2.6 11.4 1.2 4.4 3.3 13.1 4.6 19.1 2.3 10.8 2.1 13.5 -0.8 13.5 -0.5 0 -3.4 1.1 -6.2 2.5 -6.5 3 -13.7 5 -15.6 4.3 -0.9 -0.3 -5 -6.8 -9.3 -14.4 -8.9 -15.7 -11.6 -18.9 -15.3 -17.9 -8 2 -10.9 4.4 -10.5 8.6 0.1 0.3 0.6 6.6 1.2 14 0.6 7.4 1.3 14.8 1.6 16.4 0.2 1.7 0.1 3.5 -0.3 4.2 -1.5 2.2 -33.6 5.2 -34.8 3.2 -1.3 -2.1 -4.5 -17.1 -3.9 -18.1 0.4 -0.7 0.2 -0.8 -0.4 -0.4 -0.8 0.5 -1.2 -0.1 -1.2 -1.7 0 -1.4 -0.6 -3 -1.3 -3.6 -0.8 -0.6 -1.9 -3.6 -2.6 -6.7 -0.8 -3.4 -1.9 -5.8 -2.9 -6.1 -1 -0.4 -2 -1.1 -2.4 -1.7 -0.5 -0.7 -0.8 -0.7 -0.8 0.2 0 0.6 -0.6 1.2 -1.3 1.2 -2.6 0 -4.7 3.6 -4.7 8.1 -0.1 4.9 -1.8 13.8 -4.6 24.2 -1.9 6.7 -1.9 6.7 -7.4 6.6 -3 -0.1 -9.8 -0.6 -15 -1.1z"/>
  <path d="M511.5 556.3 c-5.5 -0.1 -13.7 -0.8 -18.2 -1.4 -8.3 -1.2 -8.3 -1.2 -8.3 -4.7 0 -3.5 0 -3.5 8.3 -2.7 10.5 1.1 33.6 1.1 45 0 8.7 -0.8 8.7 -0.8 8.7 2.8 0 3.6 0 3.6 -5.7 4.2 -3.2 0.4 -7.6 1.1 -9.8 1.6 -2.2 0.5 -5.3 0.8 -7 0.7 -1.6 -0.1 -7.5 -0.3 -13 -0.5z"/>
  <path d="M460 547 c-3 -1.1 -5.6 -2 -5.7 -2 -0.2 0 -0.3 -0.7 -0.3 -1.5 0 -0.9 -0.9 -1.5 -2.5 -1.5 -3.3 0 -7.5 -2 -7.5 -3.7 0 -0.7 -1.1 -1.3 -2.5 -1.3 -1.4 0 -4.8 -1.2 -7.5 -2.7 -4.4 -2.4 -5 -3.1 -5 -6 0 -3.1 0.2 -3.3 3.7 -3.3 4.2 0 12.3 4.3 12.3 6.5 0 0.9 1 1.5 2.5 1.5 3.3 0 7.5 2 7.5 3.7 0 0.7 1.1 1.3 2.6 1.3 1.5 0 5.3 1 8.5 2.1 5.6 2.1 5.9 2.3 5.9 5.5 0 3.2 -0.2 3.4 -3.2 3.4 -1.8 -0.1 -5.8 -1 -8.8 -2z"/>
  <path d="M740.3 532.5 c-11.4 -3.7 -21.3 -5.4 -21.3 -3.6 0 0.6 -0.4 1.1 -1 1.1 -0.5 0 -1 -1.6 -1 -3.6 0 -3.7 0 -3.7 7.7 -3 4.2 0.3 7.9 1 8.2 1.5 0.4 0.5 2.4 1.2 4.6 1.6 8.8 1.3 15.5 2.9 15.5 3.6 0 0.4 0.7 0.9 1.5 1.1 1.4 0.3 1.4 0.5 0 2.6 -2 2.7 -1.8 2.8 -14.2 -1.3z"/>
  <path d="M494.5 529 c-15.7 -2.2 -35.2 -9 -48.7 -17.1 -6.3 -3.7 -6.8 -4.2 -6.8 -7.4 0 -3.4 0.1 -3.5 3.9 -3.5 2.2 0 4.8 0.8 6.2 1.9 8.3 6.4 27.3 13.7 43.4 16.6 12.6 2.3 38.2 2.1 48 -0.3 4.4 -1.1 11.2 -2.6 15 -3.3 3.9 -0.7 7.9 -2.1 8.9 -3.1 1.3 -1.1 3.5 -1.8 6.2 -1.8 3.3 0 4.3 -0.4 4.7 -1.9 0.6 -2.6 7.7 -6.1 12.2 -6.1 3.3 0 3.5 0.2 3.5 3.3 0 2.9 -0.6 3.5 -5.3 6 -2.9 1.5 -6.2 2.7 -7.5 2.7 -1.2 0 -2.2 0.6 -2.2 1.3 0 1.3 -5.3 3.7 -8.3 3.7 -0.9 0 -1.7 0.4 -1.7 0.8 0 0.9 -7.8 3.6 -19 6.4 -5.8 1.5 -11.9 2 -27 2.3 -10.7 0.2 -22.2 0 -25.5 -0.5z"/>
  <path d="M421 524.5 c0 -0.8 -0.6 -1.5 -1.4 -1.5 -0.7 0 -2.5 -0.9 -4 -2.1 -1.9 -1.5 -2.6 -3 -2.6 -5.5 0 -3.2 0.2 -3.4 3.3 -3.4 3.2 0.1 8.7 3.8 8.7 6 0 0.5 0.7 1 1.5 1 1 0 1.5 1.1 1.5 3.5 0 3.3 -0.2 3.5 -3.5 3.5 -2.4 0 -3.5 -0.5 -3.5 -1.5z"/>
 </g>
 <g fill="#00245e">
  <path d="M476.7 581.9 c-0.9 -0.6 -2.7 -1.2 -3.9 -1.4 -2.4 -0.5 -3.7 -1.5 -2 -1.5 2.8 0 0.9 -1.6 -2 -1.8 -1.8 -0.1 -6 -0.7 -9.3 -1.2 -3.3 -0.6 -6.3 -1 -6.7 -1 -0.5 0 -0.8 -0.7 -0.8 -1.5 0 -0.8 -0.9 -2.4 -2 -3.5 -2.7 -2.7 -8.4 -2.6 -13.5 0.2 -2.5 1.3 -6 2.2 -9.2 2.3 -4.7 0.1 -5.7 -0.3 -8.8 -3.2 -2.9 -2.7 -4.2 -3.3 -7.5 -3.1 -2.7 0.1 -4 0.6 -4 1.5 0 0.8 -0.4 1.1 -1 0.8 -0.5 -0.3 -1 0.3 -1 1.4 0 1.3 -0.7 2.1 -1.6 2.1 -0.9 0 -2.4 1 -3.4 2.3 -1.5 1.8 -2.2 2 -3.7 1.1 -1 -0.6 -2.3 -2.2 -3 -3.5 -0.7 -1.3 -1.9 -2.4 -2.7 -2.4 -1.9 0 -4.5 -3.4 -4.6 -5.7 0 -1.2 -0.8 -1.8 -2.5 -1.8 -1.5 0 -2.5 -0.6 -2.5 -1.4 0 -1.2 -1 -1.7 -7 -3.3 -0.8 -0.2 -3.7 -0.7 -6.5 -1 -2.7 -0.3 -5.6 -1 -6.2 -1.5 -0.9 -0.7 -1.8 -0.6 -2.8 0.2 -1.2 1 -1.9 1 -2.7 0.2 -0.7 -0.7 -2 -1.2 -3 -1.2 -1 0 -2.6 -1.3 -3.6 -3 -1.7 -2.8 -1.9 -2.8 -3.2 -1 -1.3 1.8 -1.4 1.8 -3.5 -0.6 -2.7 -3.2 -4.2 -3 -4.3 0.4 -0.1 4.3 -0.6 5.6 -2.2 6.4 -2.3 1 -9 0.9 -9 -0.2 0 -0.5 0.4 -1 0.9 -1 1.5 0 4.3 -6.9 3.6 -9.1 -0.4 -1.1 -1.7 -3 -2.9 -4.2 -1.3 -1.3 -3.1 -3.6 -4.1 -5.1 -1.3 -1.9 -2.4 -2.6 -3.7 -2.2 -1.4 0.3 -1.8 0 -1.4 -1 0.3 -0.7 -0.3 -1.8 -1.3 -2.3 -2.4 -1.4 -11 -1.5 -14.6 -0.3 -3.3 1.2 -11.9 2.9 -17.8 3.7 -2.7 0.3 -3.9 0 -4.3 -1 -0.4 -0.8 -1.2 -1.5 -2 -1.5 -0.9 0 -1.4 -1.1 -1.4 -2.7 0 -2.3 -0.2 -2.5 -1.1 -1.3 -0.9 1.2 -1 1.1 -0.6 -0.7 0.4 -1.6 0.1 -2 -1.1 -1.6 -1.1 0.5 -1.4 0.2 -0.9 -1.1 0.8 -2.1 -4.9 -13.9 -6.4 -13.1 -1.1 0.7 -4.3 -6 -4.1 -8.8 0 -0.9 -0.3 -1.5 -0.9 -1.2 -0.5 0.4 -0.9 0.1 -0.9 -0.4 0 -2.1 -0.2 -2.6 -1.3 -4 -0.9 -1.2 -0.9 -1.3 0 -0.7 0.7 0.4 1.3 0.2 1.3 -0.3 0 -0.6 0.6 -1.1 1.4 -1.1 0.8 0 1.8 -0.4 2.1 -1 0.3 -0.6 -0.2 -0.7 -1.2 -0.4 -1 0.3 0.8 -0.9 4.1 -2.6 3.2 -1.7 6 -2.9 6.3 -2.7 0.2 0.3 1.5 -0.6 2.8 -1.9 3.2 -3.2 4.5 -3 4.5 0.5 0 2.1 -0.6 3.2 -2 3.6 -1.1 0.3 -2 1.1 -2 1.6 0 0.5 -0.5 0.9 -1.1 0.9 -0.6 0 -2.6 1.2 -4.5 2.7 -3.1 2.3 -3.3 2.8 -2 4.1 1.4 1.4 1.9 1.3 5.5 -0.3 3.3 -1.4 5.6 -1.6 12.8 -1.2 14.8 1 20.8 2.3 30 6.3 1.7 0.8 5.8 1.4 9.1 1.4 3.4 0 6.4 0.5 6.7 1 0.3 0.6 2.2 1 4.1 1 2.7 0 3.4 -0.4 3.4 -2 0 -1.8 0.7 -2 5.6 -2 4.7 0 5.7 0.3 6.1 2 0.5 1.8 1.4 2 7.8 2 7 0 13.5 2 13.5 4.1 0 0.5 1 0.9 2.3 0.9 1.3 0 3.3 0.9 4.5 2 1.2 1.1 3 2 4.2 2 1.1 0 3 1.2 4.3 2.6 3.3 4 7.3 5.2 18.8 6 9.6 0.7 10.2 0.6 8.7 -0.9 -0.9 -1 -2 -1.7 -2.4 -1.7 -0.9 0 -11.5 -10.8 -18.2 -18.6 -4.2 -5 -5.2 -6.9 -5.2 -9.8 0 -3.3 0.2 -3.6 2.8 -3.6 2.3 0 5.1 2.3 14.3 11.5 6.3 6.3 11.9 11.5 12.4 11.5 0.6 0 2 1 3.1 2.3 1.2 1.2 4.7 3.8 7.7 5.7 3.1 1.9 5.6 4.1 5.7 4.8 0 0.6 1.1 1.2 2.4 1.2 1.3 0 2.6 0.3 2.8 0.8 0.4 0.9 18.6 9.5 24.8 11.7 8.5 3.1 18.4 5.4 27.7 6.6 5.1 0.6 9.3 1.5 9.3 2 0 0.5 4.7 0.9 10.5 0.9 6.3 0 10.5 -0.4 10.5 -1 0 -0.5 1.1 -1 2.4 -1 5.7 0 26.1 -4.2 34.2 -7 17.8 -6.1 39.2 -18.4 53.9 -30.9 4.5 -3.9 6.7 -5.1 9.3 -5.1 3.2 0 3.3 0.1 3 3.7 -0.3 3.3 -1.4 4.6 -9.8 12 -5.5 4.8 -12.6 9.8 -16.9 12 -5.5 2.8 -6.9 3.9 -5.3 4.1 1.2 0.2 2.9 -0.4 3.8 -1.2 0.8 -0.9 2.6 -1.6 3.8 -1.6 1.2 0 3.2 -0.9 4.4 -2 1.1 -1.1 4.3 -2.5 6.9 -3.1 8.6 -2 11.1 -3.5 12.1 -7.1 0.8 -3.2 1 -3.3 9.3 -4.8 4.6 -0.9 9.1 -1.9 9.9 -2.2 4 -1.7 8.3 -2.1 17.3 -1.9 8.1 0.1 9.7 -0.1 9.7 -1.4 0 -0.9 0.9 -1.5 2.5 -1.5 2.3 0 2.5 -0.4 2.5 -4 0 -3.9 0.1 -4 3.3 -4 1.8 0 3.8 -0.5 4.3 -1 0.6 -0.6 5.8 -1.4 11.6 -1.7 10 -0.6 10.6 -0.5 12 1.6 1.4 1.9 1.9 2.1 3.7 1.1 4.5 -2.4 46.7 -3.6 51.5 -1.5 1.6 0.7 1.7 0.6 0.7 -1.3 -0.7 -1.2 -1.8 -2.2 -2.7 -2.2 -0.8 0 -1.7 -0.6 -2 -1.4 -0.3 -0.8 -1.9 -1.8 -3.6 -2.1 -1.6 -0.4 -6.1 -2.2 -9.9 -4.1 -6.6 -3.3 -6.9 -3.6 -6.9 -6.9 0 -2.7 0.4 -3.5 1.8 -3.5 0.9 0 2.3 0.9 3 2 0.7 1.1 1.7 2 2.2 2 1.5 0 20.2 9.3 23.1 11.5 2.6 1.9 2.6 1.9 -0.3 8.5 -1.6 3.6 -3.9 8.3 -5 10.5 -1.1 2.2 -3.2 6.3 -4.6 9 -4.3 8.4 -8.2 13.5 -10.4 13.5 -0.9 0 -1 -0.2 -0.2 -0.8 0.9 -0.5 0.8 -1.1 -0.2 -2 -0.8 -0.7 -1.4 -1.1 -1.4 -0.8 0 0.3 -1.9 -0.2 -4.2 -0.9 -2.4 -0.8 -6.5 -1.6 -9.1 -1.8 -2.7 -0.2 -5.2 -0.9 -5.7 -1.6 -1.2 -2 -9.5 -0.5 -12.3 2.2 -1.2 1.2 -3.4 3.9 -4.7 5.9 -1.6 2.5 -3.1 3.6 -4.1 3.3 -2.3 -0.7 -4 3.3 -3.5 8.1 0.5 5.2 -0.3 6.5 -4.3 6.6 -2.8 0.1 -3.2 0.4 -2.7 2.2 0.4 1.7 0 2.2 -1.8 2.4 -1.3 0.1 -2.9 -0.5 -3.6 -1.3 -0.7 -0.8 -1.6 -1.2 -2.1 -0.9 -0.5 0.3 -1.2 -0.1 -1.5 -0.9 -0.3 -0.9 -1.6 -1.8 -3 -2.1 -1.3 -0.4 -2.4 -1.3 -2.4 -2.1 0 -0.8 -0.5 -1.5 -1.2 -1.5 -0.6 0 -0.9 0.3 -0.5 0.6 1.4 1.5 -2.5 3.4 -6.8 3.4 -2.5 0 -5.7 0.7 -7 1.6 -1.5 1 -2.5 1.2 -2.5 0.5 0 -0.6 0.6 -1.1 1.3 -1.1 1.6 -0.1 -1.8 -2 -4.3 -2.5 -1.1 -0.2 -2 0 -2 0.5 0 0.5 -1 1.2 -2.2 1.6 -3.6 1.2 -4.8 1.3 -4.8 0.3 0 -1.4 -2.8 -1.1 -5.3 0.5 -1.2 0.8 -5.3 2 -9.1 2.7 -5.2 0.9 -7 1.6 -7.3 3 -0.3 1 -1.4 2.1 -2.4 2.4 -1 0.4 -1.9 1.1 -1.9 1.6 0 0.5 -2 0.9 -4.4 0.9 -3.6 0 -4.4 0.3 -4.2 1.8 0 1 -0.5 1.6 -1.4 1.3 -0.8 -0.2 -5 -0.5 -9.2 -0.7 -5.6 -0.1 -8 0.2 -8.9 1.2 -0.6 0.7 -1.6 1.1 -2.2 0.7 -0.5 -0.3 -0.7 -0.1 -0.4 0.4 0.4 0.6 -0.2 2.1 -1.2 3.4 -1.8 2.2 -1.9 2.2 -4.4 0.6 -3.2 -2.1 -5.7 -2.2 -5.7 -0.3 0 0.8 -0.7 1.7 -1.6 2 -2.5 1 -15.2 0.7 -15.9 -0.4 -0.3 -0.5 -2.3 -1.4 -4.5 -2 -2.1 -0.6 -4.7 -1.8 -5.6 -2.8 -1.3 -1.2 -1.9 -1.3 -2.2 -0.4 -0.2 0.7 -0.7 1 -1.2 0.7 -0.4 -0.3 -1.3 0.2 -2 1 -0.7 0.8 -1.9 1.5 -2.6 1.5 -0.8 0 -1.4 0.4 -1.4 0.9 0 0.5 -1.2 1.3 -2.8 1.9 -3.5 1.2 -21.3 1.6 -22.1 0.5 -0.3 -0.5 -2.2 -0.3 -4.1 0.4 -2.4 0.8 -2.8 1.2 -1.5 1.3 1.8 0.1 1.7 0.2 -0.4 1.1 -2.9 1.2 -7.1 0.2 -5 -1.2 0.9 -0.6 0.2 -0.9 -2.4 -0.9 -2.1 0 -4.5 0.7 -5.4 1.5 -1 1.1 -3 1.5 -6.6 1.2 -2.9 -0.1 -6.8 0.3 -8.7 1 -4.3 1.5 -10.9 1.6 -13.3 0.2z"/>
  <path d="M499 528.5 c0 -0.8 -0.4 -1.5 -1 -1.5 -0.5 0 -1 0.5 -1 1 0 0.6 -1.6 1 -3.5 1 -2.1 0 -3.5 -0.5 -3.5 -1.2 0 -0.9 -1.8 -1.3 -5.6 -1.3 -4.2 0 -5.8 -0.4 -6.5 -1.7 -0.7 -1.3 -2.3 -1.8 -5.9 -1.8 -2.8 0 -5 -0.4 -5 -1 0 -0.5 -0.9 -1 -2 -1 -2.1 0 -15 -5.5 -16 -6.8 -0.3 -0.4 -2.2 -1.5 -4.2 -2.4 -2.1 -1 -3.8 -2.2 -3.8 -2.8 0 -0.5 -0.6 -1 -1.3 -1 -1.3 0 -10.6 -6.3 -12.2 -8.3 -0.5 -0.7 -2.2 -2 -3.7 -2.9 -1.5 -1 -5.4 -4.9 -8.7 -8.8 -4.9 -5.7 -6.1 -7.7 -6.1 -10.5 0 -3.3 0.2 -3.5 3.2 -3.5 2.3 0 4.6 1.2 8.8 4.9 9 7.8 12.3 9.3 20.7 9.3 5.3 0 7.6 -0.4 8.8 -1.6 2.1 -2.1 6.2 -2 11.1 0 3.7 1.6 5.8 2.2 14.9 4.5 2.2 0.6 11.4 1.4 20.5 1.9 11.9 0.6 17.8 1.3 21.2 2.6 4.8 1.8 4.8 1.8 11.5 -1.5 6.1 -3 7.3 -3.2 14.9 -3 4.6 0.2 8.6 0 9 -0.4 0.4 -0.4 2.9 -0.7 5.6 -0.7 3.6 0 4.8 0.4 4.8 1.5 0 1.2 1.3 1.5 5.5 1.5 3.7 0 5.5 0.4 5.5 1.3 0.1 0.6 0.7 0 1.5 -1.4 1.4 -2.5 2.1 -2.7 10.6 -3.4 6 -0.5 9.4 -0.4 10.1 0.3 0.8 0.8 2.1 0.7 4.6 -0.3 1.9 -0.8 4.9 -1.5 6.8 -1.5 3.1 0 3.3 -0.2 3.6 -3.7 0.3 -3.6 0.5 -3.8 4.1 -4.1 3.8 -0.3 3.8 -0.3 3.5 3.5 -0.3 3.6 -0.5 3.8 -4 4.1 -3.6 0.3 -3.8 0.5 -3.8 3.7 0 3 -0.8 4.1 -6.2 8.4 -15 11.9 -43.9 25.5 -54.5 25.6 -3.2 0 -5.3 0.4 -5.3 1.1 0 1.3 -2.5 1.9 -11.7 3 -4.4 0.4 -6.3 0.3 -6.3 -0.5 0 -0.6 -1 -1.2 -2.2 -1.2 -1.3 -0.1 0.2 -0.5 3.2 -1 9.7 -1.5 16.3 -2.9 25.3 -5.6 9 -2.7 11.2 -4.1 3.6 -2.4 -26.5 6.1 -24.5 5.8 -42.8 5.4 -19.7 -0.4 -29.1 -1.8 -44.1 -6.6 -11.6 -3.7 -14.9 -5.3 -22.8 -10.5 -2.9 -1.9 -5.5 -3.2 -5.8 -2.9 -0.3 0.3 2.5 2.3 6.3 4.6 15.7 9.3 34.5 15.4 54.3 17.6 6.3 0.7 9.6 1.3 7.3 1.4 -2.4 0 -4.3 0.6 -4.3 1.1 0 0.6 -1.6 1 -3.5 1 -2.4 0 -3.5 -0.5 -3.5 -1.5z"/>
  <path d="M495 487.8 c-13.8 -4 -18.6 -5.9 -22.5 -9.1 -0.5 -0.5 -3.5 -2.5 -6.5 -4.6 -4.9 -3.3 -5.5 -4.2 -5.8 -7.5 -0.4 -4.3 -1.3 -4.6 8.6 3 1.5 1.2 5.2 3.4 8.2 4.9 3 1.5 6.6 3.3 8 4 8.4 4.3 26.5 6.3 41.5 4.4 5.5 -0.7 11.2 -1.3 12.8 -1.3 1.5 -0.1 2.7 -0.4 2.7 -0.8 0 -0.5 0.8 -0.8 1.8 -0.8 0.9 0 4.2 -1.3 7.2 -3 3 -1.6 5.8 -2.9 6.3 -3 0.4 0 0.7 1.4 0.7 3 0 2.3 -0.4 3 -2 3 -1.1 0 -2 0.4 -2 0.8 0 1.6 -10.7 6 -17.1 7.1 -8.1 1.3 -37.1 1.3 -41.9 -0.1z"/>
  <path d="M400.8 469.5 c-1 -1.3 -1.8 -4 -1.8 -5.9 0 -3.4 0.2 -3.6 3.1 -3.6 4 0 6.8 3.3 6.9 8.3 0 3.5 -0.1 3.7 -3.2 3.7 -2.3 -0.1 -3.8 -0.8 -5 -2.5z"/>
 </g>
 <g fill="#002d6b">
  <path d="M491.5 550 c-17 -2.7 -24.5 -4.9 -24.5 -7 0 -1.6 5.4 -1.2 13.3 0.9 4 1.1 12.1 2.6 18 3.3 9.1 1 10.7 1.5 10.7 3 0 2.2 -2.4 2.2 -17.5 -0.2z"/>
  <path d="M524 550.1 c0 -1.6 0.6 -2.1 2.8 -2.1 6.4 0 26.4 -4.3 37.2 -7.9 6.3 -2.2 13.2 -4.2 15.3 -4.6 2.2 -0.3 4.1 -1.3 4.4 -2.3 0.9 -2.2 2.3 -3.2 5.1 -3.2 1.2 0 2.2 -0.6 2.2 -1.3 0 -1.6 4.1 -3.7 7.1 -3.7 2.9 0 6.9 -2.9 6.9 -5.1 0 -1.1 0.6 -1.9 1.4 -1.9 0.8 0 1.6 -0.7 2 -1.5 0.3 -0.8 1.3 -1.5 2.3 -1.5 1 0 2.3 -1 2.8 -2.2 0.6 -1.3 2 -2.4 3.3 -2.6 1.3 -0.2 2.6 -1.1 2.9 -2 0.3 -0.9 4.1 -5.3 8.3 -9.7 7.7 -8 18.3 -21.6 22.3 -28.7 1.8 -3.2 2.7 -3.8 5.5 -3.8 3 0 3.2 0.2 3.2 3.6 0 2 -1 5.5 -2.1 7.8 -1.2 2.2 -2.5 4.9 -3 5.9 -1.3 2.5 1.2 2.2 4.4 -0.6 1.5 -1.2 2.7 -3.2 2.7 -4.4 0 -1.6 1.3 -3 4.4 -4.8 2.4 -1.4 5 -3.2 5.6 -4 0.7 -0.8 2.8 -1.5 4.6 -1.5 2.8 0 3.4 0.4 3.4 2.1 0 1.8 0.4 2 2.8 1.5 1.5 -0.4 7.7 -0.9 13.7 -1.2 11.8 -0.5 18.1 -1.9 18.9 -4 0.8 -2 13.5 -1.9 17.2 0.1 6.4 3.3 11.9 1.2 14.5 -5.7 1 -2.5 1.5 -2.7 9.7 -3.4 5.5 -0.4 10.7 -0.3 14.3 0.5 3 0.6 7.1 1.1 9 1.1 1.9 0 4.4 0.3 5.6 0.6 1.9 0.5 2 0.9 1.1 3.6 -1 2.9 -1.2 3 -6.2 2.4 -23.5 -2.6 -27.4 -2.5 -29.6 0.4 -2.3 3 -5.4 12.5 -4.7 14.4 0.3 0.8 0.1 1.7 -0.6 1.9 -1.4 0.5 11.9 7.2 16.1 8.2 1.7 0.3 3.3 1.3 3.6 2.1 0.3 0.8 1.2 1.4 2 1.4 0.8 0 2.3 1.5 3.4 3.3 1.5 2.7 1.7 3.8 0.8 5.3 -1.3 2.3 -4.9 2.8 -7.9 1.3 -2.3 -1.3 -34.3 -1.6 -40 -0.4 -5.5 1.1 -10.2 2.9 -11 4.3 -0.6 1 -1.1 0.9 -2.3 -0.3 -0.9 -0.8 -2.1 -1.2 -2.7 -0.8 -0.8 0.4 -0.8 0.2 0.1 -0.9 1.8 -2.2 -0.3 -3.6 -5.5 -3.6 -3.6 -0.1 -4.3 0.2 -4.3 1.9 0 1.4 -0.7 1.9 -2.6 1.9 -1.4 0 -2.3 -0.4 -1.9 -0.9 1.1 -1.8 -1.7 -2.3 -3.5 -0.6 -1.3 1.2 -2.7 1.5 -4.5 1.1 -3.4 -0.9 -3.4 2 0.1 3.6 2.5 1.2 2.5 1.2 0.2 2.5 -1.3 0.7 -3.5 1.2 -5 1.3 -1.8 0 -2.8 0.5 -2.8 1.5 0 1 1.6 1.6 5 2.1 5.1 0.7 6.3 1.7 3.4 2.8 -3.1 1.2 -6.9 0.6 -8.1 -1.3 -0.9 -1.5 -2.6 -1.9 -8.5 -2.1 -11.6 -0.4 -17.1 0.2 -19.8 2.5 -0.8 0.6 -3.5 1.2 -5.9 1.3 -3.1 0.1 -5.1 0.8 -6.8 2.4 -1.6 1.5 -2.4 1.8 -2.1 0.8 0.2 -0.8 -0.4 -1.5 -1.2 -1.5 -0.8 0 -1.5 0.9 -1.5 2 0 3.8 -4.3 6.9 -10.9 7.9 -2.2 0.4 -4.5 1.1 -5.3 1.7 -0.7 0.6 -1.3 0.8 -1.3 0.3 0 -0.4 -1.5 0.9 -3.3 2.9 -3.3 3.8 -6.1 4.7 -7 2.5 -0.4 -1 -0.6 -1 -0.6 0 -0.1 0.6 -1.2 1.2 -2.6 1.2 -1.5 0 -4 0.7 -5.7 1.6 -1.7 0.9 -4.3 1.8 -5.7 2 -8.5 1.2 -10.1 1.7 -10.6 3.5 -0.4 1 -1.3 1.9 -2.1 1.9 -0.8 0 -1.4 0.5 -1.4 1 0 0.6 -0.7 1 -1.5 1 -0.8 0 -1.5 -0.8 -1.5 -1.7 0 -1.2 -0.3 -1.4 -0.8 -0.6 -0.4 0.6 -2.7 1.4 -5.2 1.7 -2.5 0.3 -5.8 0.8 -7.5 1.1 -1.6 0.3 -2.4 0.2 -1.7 -0.1 0.6 -0.3 1.2 -1.1 1.2 -1.7 0 -0.7 1.8 -1.3 4.1 -1.4 4.1 -0.3 9.9 -2.6 15.4 -6.3 1.7 -1.1 5 -2.9 7.5 -4.1 2.5 -1.2 5.2 -2.8 6.1 -3.6 0.9 -0.7 4.3 -2.6 7.6 -4.2 5.5 -2.7 22.9 -16.3 26.3 -20.7 1.4 -1.8 1.4 -1.8 -0.5 -0.4 -1.1 0.8 -4.5 3.5 -7.5 6.1 -13.7 11.4 -34.3 23 -51.4 28.9 -7.9 2.7 -21.5 5.6 -36.3 7.5 -4.9 0.6 -5.3 0.5 -5.3 -1.4z"/>
  <path d="M437 529.9 c-10.8 -6.5 -24.4 -17.5 -34.2 -27.7 -4.3 -4.4 -7.8 -7.7 -7.8 -7.5 0 1.9 22.1 25.3 23.8 25.3 0.7 0 1.2 0.4 1.2 0.9 0 0.5 0.9 1.3 2 1.6 1.1 0.3 2.2 1.8 2.6 3.3 0.3 1.5 0.9 3.5 1.5 4.5 0.8 1.4 0.5 1.7 -1.5 1.7 -1.3 0 -2.6 -0.5 -2.8 -1.2 -0.3 -0.7 -5 -1.4 -12.9 -2 -14.6 -1 -17.7 -1.9 -21.3 -5.8 -1.4 -1.7 -3.5 -3 -4.6 -3 -1.2 0 -3 -0.9 -4.2 -2 -1.4 -1.3 -2.9 -1.8 -4.5 -1.4 -1.7 0.5 -2.3 0.2 -2.3 -0.9 0 -3.5 -5.7 -4.6 -22.2 -4.4 -11.8 0.1 -16.3 -0.2 -18.3 -1.3 -2.3 -1.2 -2.8 -1.2 -3.6 0 -0.8 1.3 -1 1.3 -1.9 0 -0.7 -1.1 -1.2 -1.2 -2 -0.4 -1.3 1.3 -6 0.6 -6 -0.9 0 -0.6 -0.3 -0.7 -0.7 -0.4 -0.3 0.4 -1.3 0.1 -2.2 -0.6 -2 -1.7 -11.8 -4.6 -15.1 -4.5 -1.4 0 -3.6 -0.3 -5 -0.7 -5.3 -1.6 -12.7 -1.7 -15.8 -0.1 -4 2.1 -9.9 2.4 -11.6 0.6 -0.7 -0.8 -1.6 -2.7 -2 -4.2 -0.5 -2.2 0 -3.1 3.3 -5.7 2.1 -1.7 4.3 -3.1 4.9 -3.1 0.5 0 1.5 -0.7 2.2 -1.5 0.7 -0.8 1.7 -1.2 2.3 -0.8 0.6 0.4 0.8 0 0.4 -1 -0.4 -1.2 0.5 -2 4.1 -3.3 2.6 -0.9 5.5 -2.5 6.6 -3.5 1.8 -1.6 1.8 -1.9 -0.9 -10 -1.6 -4.6 -3.3 -8.8 -3.9 -9.2 -0.6 -0.4 0.7 -0.6 2.8 -0.5 3.4 0.3 4.2 0.8 6.1 4.3 2.7 4.7 6.5 7.7 6.5 5.1 0 -1.2 0.9 -1.6 3.4 -1.6 1.9 0 3.6 0.4 3.8 0.9 0.2 0.5 4.7 1.1 10 1.3 9.1 0.3 9.7 0.2 10 -1.7 0.2 -1.4 1.2 -2.1 3.5 -2.3 4.4 -0.4 7.3 1.3 7.3 4.3 0 2.3 0.4 2.5 4.8 2.5 7.2 0 12.2 -1.1 12.2 -2.6 0 -2.5 6.4 -1.7 9 1.1 1.3 1.4 3.1 2.5 4.1 2.5 1 0 2.1 0.5 2.4 1 0.3 0.6 1.3 1 2.1 1 1.8 0 1.8 -3.7 -0.1 -7 -0.8 -1.4 -1.4 -3.3 -1.5 -4.3 0 -1 -0.7 -2.5 -1.5 -3.3 -0.8 -0.9 -1.5 -3.3 -1.5 -5.5 0 -3.8 0.1 -3.9 3.4 -3.9 3.4 0 4.6 1.3 4.6 5 0 1 0.4 2 0.8 2.2 0.5 0.2 2.6 3.2 4.7 6.8 3.9 6.4 9.6 15 14.5 22 1.4 1.9 3.5 4.3 4.8 5.3 1.2 1 2.2 2.6 2.2 3.6 0 2.5 10.5 13.1 12.9 13.1 1.5 0 2.1 0.6 2.1 2.4 0 3 1.9 4.5 6.4 5.3 3 0.5 3.6 1 3.6 2.9 0 2.1 0.5 2.4 3.5 2.4 2.4 0 3.5 0.5 3.5 1.5 0 0.9 0.9 1.5 2.5 1.5 1.6 0 2.5 0.6 2.5 1.5 0 0.8 0.9 1.5 1.9 1.5 3.5 0 5.1 1.2 5.1 3.6 0 1.3 -0.3 2.4 -0.7 2.4 -0.5 0 -4.6 -2.3 -9.3 -5.1z"/>
  <path d="M580 512.2 c0 -0.4 3.9 -3 8.8 -5.9 8.3 -4.9 20.7 -14.1 20 -14.8 -0.1 -0.2 -3.2 0.6 -6.7 1.8 -5.9 1.9 -6.4 1.9 -7.3 0.4 -1.3 -2.4 -4.9 -2.2 -5.5 0.3 -0.5 1.9 -0.7 2 -2.9 0.5 -3.3 -2.2 -5.3 -1.9 -6.6 1 -0.6 1.4 -1.4 2.5 -1.7 2.6 -0.3 0 -1.4 0.2 -2.4 0.4 -0.9 0.2 -2.4 -0.4 -3.3 -1.2 -1.1 -1.1 -2.9 -1.4 -7 -1.1 -5 0.4 -5.5 0.3 -5.1 -1.4 0.4 -1.3 0 -1.8 -1.3 -1.8 -1.1 0 -2.2 0.5 -2.5 1 -0.4 0.7 -3.9 0.9 -9.2 0.6 -7.9 -0.4 -9.1 -0.2 -14.2 2.3 -8.4 4.2 -12.3 4.7 -17.7 2 -3.7 -1.7 -6.8 -2.2 -16.2 -2.6 -20 -0.7 -27.7 -1.9 -39.4 -6.4 -4.2 -1.5 -5 -1.6 -6.2 -0.3 -0.8 0.8 -2.8 1.4 -4.4 1.4 -1.6 0 -3.9 0.9 -5.1 2 -2.3 1.9 -2.3 1.9 -5.1 -0.2 -1.9 -1.4 -3.6 -1.9 -5.3 -1.4 -1.6 0.4 -2.9 0.1 -3.7 -0.9 -0.7 -0.8 -1.8 -1.5 -2.5 -1.5 -1.1 0 -3.6 -2 -13.4 -10.4 -2.4 -2.1 -2.4 -2.1 -1.1 0.3 2.1 4.1 17.3 18.4 24.7 23.4 8.6 5.7 9.4 6.7 5.4 6.7 -3.9 0 -6.1 -0.9 -6.1 -2.6 0 -0.8 -0.9 -1.4 -2 -1.4 -1.1 0 -2 -0.4 -2 -1 0 -0.5 -0.7 -1 -1.5 -1 -0.8 0 -1.5 -0.7 -1.5 -1.5 0 -0.8 -0.8 -1.5 -1.8 -1.5 -2.6 0 -4.2 -2 -4.2 -5.1 0 -3 -4.3 -6.9 -7.7 -6.9 -2.1 0 -5.3 -2.9 -5.3 -4.8 0 -0.7 -0.4 -1.2 -0.8 -1.2 -0.9 0 -7.2 -8.6 -7.2 -9.9 0 -0.5 -0.7 -1.1 -1.5 -1.5 -0.8 -0.3 -1.5 -1.4 -1.5 -2.5 0 -1.1 -0.4 -2.1 -0.9 -2.3 -1.3 -0.5 -8.8 -15 -11.1 -21.6 -1.1 -3.1 -2 -7.3 -2 -9.4 0 -3.7 0.1 -3.8 3.4 -3.8 2.8 0 3.5 0.4 4 2.5 0.4 1.4 2 4.6 3.6 7.2 1.7 2.6 3 5.8 3 7.1 0 2.2 0.3 2.4 3.2 1.8 1.7 -0.3 4 -1.4 5 -2.3 2.8 -2.5 10.5 -2.8 15.9 -0.5 5 2.2 8.9 1.9 11.3 -0.7 1.4 -1.5 1.4 -2.5 0.4 -6.9 -0.7 -2.9 -1.6 -5.2 -2 -5.2 -0.5 0 -0.8 -1.6 -0.8 -3.5 0 -6 3 -4.5 6.7 3.3 1.8 3.7 4.5 8.8 6 11.4 3 5 20.2 24.8 21.6 24.8 0.4 0 0.5 -0.5 0.1 -1.2 -0.5 -0.7 -0.3 -0.8 0.5 -0.4 0.7 0.5 1 1 0.7 1.4 -0.9 0.8 5.7 5.3 7.1 4.8 0.7 -0.3 1 0.1 0.7 0.8 -0.7 1.9 7.7 5.7 20.5 9 6.8 1.7 27.3 2.1 36.6 0.6 6.9 -1.2 17.8 -5.7 17 -7.1 -0.7 -1 2.5 -2 3.7 -1.2 0.6 0.3 0.8 0.1 0.4 -0.5 -0.3 -0.6 0.4 -1.4 1.6 -1.8 6.7 -2.1 24.9 -17.5 30.6 -25.9 1.5 -2.2 3.3 -4.6 4 -5.3 0.6 -0.7 1.2 -1.8 1.2 -2.3 0 -0.5 0.7 -0.9 1.5 -0.9 2.2 0 1.9 5.8 -0.5 9.8 -1.1 1.7 -2.4 3.2 -3 3.2 -0.5 0 -1 0.5 -1 1.1 0 0.6 -0.9 2.4 -2.1 4 -2.4 3.4 -1.3 3.7 3.3 0.9 1.8 -1.1 4.7 -2 6.4 -2 1.7 0 3.7 -0.6 4.3 -1.4 0.7 -0.8 4.3 -1.6 8.9 -2 10 -0.9 11.1 -1.3 12.2 -4 0.9 -2.5 2.5 -2.9 15.8 -4.2 7.2 -0.7 7.2 -0.7 7.2 3.3 0 2.6 -1 5.4 -3 8.6 -1.6 2.6 -3 5 -3 5.3 0 1.6 -9.2 13.6 -17.5 22.8 -7.2 8 -10.2 10.6 -12 10.6 -1.8 0 -2.5 0.5 -2.5 2 0 1.1 -0.8 2.4 -1.7 2.7 -1 0.4 -2.2 1.2 -2.6 2 -0.4 0.7 -1.5 1.3 -2.2 1.3 -0.8 0 -1.5 0.5 -1.5 1 0 0.6 -0.5 1 -1.1 1 -0.6 0 -1.7 0.7 -2.5 1.5 -0.9 0.8 -2.6 1.5 -4 1.5 -1.4 0 -2.4 0.6 -2.4 1.4 0 0.8 -0.7 1.7 -1.6 2 -2.2 0.9 -7.4 0.7 -7.4 -0.2z"/>
  <path d="M250.8 461.2 c-1 -0.2 -1.8 -0.5 -1.8 -0.6 0 -0.6 -2 -10.2 -2.9 -13.8 -0.8 -3.6 -0.8 -3.8 1.5 -3.8 1.5 0 2.4 0.6 2.4 1.5 0 0.8 0.5 1.5 1 1.5 0.6 0 1 0.6 1 1.3 0 0.6 0.4 2.8 1 4.7 1 3.5 1 3.5 15.5 3.2 13.8 -0.4 14.5 -0.3 14.5 1.5 0 1.7 -1.1 2.2 -6.7 3.1 -7 1.2 -22.5 2 -25.5 1.4z"/>
 </g>
 <g fill="#073a7c">
  <path d="M504.8 551.3 c-1 -0.2 -1.8 -1.1 -1.8 -1.9 0 -1.1 2.5 -1.4 13.5 -1.4 10.8 0 13.5 0.3 13.5 1.4 0 0.7 -1 1.6 -2.2 2 -2.6 0.7 -20.4 0.6 -23 -0.1z"/>
  <path d="M472.5 545.8 c-15.5 -5.2 -37.5 -15.7 -37.5 -18 0 -0.4 1.6 -0.8 3.5 -0.8 2.8 0 3.5 0.4 3.5 2 0 1.6 0.7 2 3.5 2 1.9 0 3.5 0.5 3.5 1 0 0.6 0.7 1 1.5 1 2 0 8.5 3.2 8.5 4.2 0 0.4 1.1 0.8 2.5 0.8 1.4 0 2.5 0.5 2.5 1 0 0.6 0.9 1 2 1 1.1 0 3.8 0.6 6 1.2 3.1 1 4 1.8 4 3.5 0 1.3 -0.1 2.3 -0.2 2.2 -0.2 0 -1.6 -0.5 -3.3 -1.1z"/>
  <path d="M568 540.5 c0 -2 0.5 -2.5 2.5 -2.5 1.4 0 2.5 -0.4 2.5 -0.8 0 -1.2 8.8 -5.2 11.5 -5.2 1.5 0 2.5 -0.6 2.5 -1.4 0 -1.7 2.2 -2.6 6.1 -2.6 2.2 0 2.9 -0.5 2.9 -2 0 -1.1 0.7 -2 1.5 -2 0.8 0 1.5 -0.4 1.5 -1 0 -0.5 0.7 -1 1.5 -1 0.8 0 1.5 -0.4 1.5 -1 0 -0.5 0.9 -1 2 -1 1.1 0 2 -0.7 2 -1.5 0 -0.8 0.8 -1.5 1.9 -1.5 1 0 2.1 -0.9 2.4 -2 0.3 -1.4 1.4 -2 3.1 -2 1.9 0 2.6 -0.5 2.6 -2 0 -1.6 0.7 -2 3.8 -2 3.7 0.1 3.7 0.1 -0.8 4 -11.7 10.2 -31.6 22.4 -45.7 27.9 -5.3 2.1 -5.3 2.1 -5.3 -0.4z"/>
  <path d="M459 519 c0 -0.5 -0.9 -1 -2 -1 -2.4 0 -9 -3.1 -9 -4.2 0 -0.4 -0.7 -0.8 -1.5 -0.8 -0.8 0 -1.5 -0.7 -1.5 -1.5 0 -0.9 -0.9 -1.5 -2.5 -1.5 -1.8 0 -2.5 -0.5 -2.5 -2 0 -1.6 -0.7 -2 -3 -2 -1.6 0 -3 -0.4 -3 -1 0 -0.5 -0.7 -1 -1.5 -1 -0.8 0 -1.5 -0.7 -1.5 -1.5 0 -0.8 -0.9 -1.5 -2 -1.5 -1.6 0 -2 -0.7 -2 -3.1 0 -3.1 0 -3.1 4.8 0.4 9.4 6.9 15.9 10.9 25 15.4 5 2.5 9.2 4.9 9.2 5.4 0 0.5 -1.6 0.9 -3.5 0.9 -1.9 0 -3.5 -0.4 -3.5 -1z"/>
  <path d="M566 519.2 c0 -0.5 5.5 -3.7 12.3 -7 11.2 -5.6 20.5 -11.6 29.5 -18.9 3.4 -2.7 3.4 -2.7 3 0.8 -0.2 2.9 -0.7 3.4 -3 3.7 -2 0.2 -2.8 0.9 -2.8 2.3 0 1.2 -0.7 1.9 -2 1.9 -1.1 0 -2 0.7 -2 1.5 0 0.8 -0.7 1.5 -1.5 1.5 -0.8 0 -1.5 0.5 -1.5 1 0 0.6 -1.1 1 -2.5 1 -1.5 0 -2.5 0.6 -2.5 1.4 0 1.5 -2.1 2.6 -5.1 2.6 -1 0 -1.9 0.6 -1.9 1.3 0 1.5 -8.1 5.7 -11 5.7 -1.1 0 -2 0.5 -2 1 0 0.6 -1.6 1 -3.5 1 -1.9 0 -3.5 -0.4 -3.5 -0.8z"/>
  <path d="M398.7 497.5 c-6.6 -7.7 -13.3 -17.3 -21.1 -30 -3.4 -5.6 -5.2 -6.9 -2.1 -1.5 0.8 1.4 1.4 3.7 1.5 5.3 0 1.5 0.8 3.5 1.8 4.5 1.8 1.8 5.2 8.3 5.2 9.9 0 0.4 -0.7 1.6 -1.4 2.6 -1.3 1.7 -1.5 1.7 -3.9 -0.7 -1.4 -1.4 -3.2 -3.8 -3.9 -5.3 -1 -1.9 -2.1 -2.7 -3.5 -2.6 -1.2 0.1 -2.7 -0.4 -3.3 -1.2 -0.7 -0.8 -2 -1.5 -2.9 -1.5 -1 0 -2.8 -1.1 -4.1 -2.5 -2.2 -2.3 -2.5 -2.4 -3 -0.9 -0.7 1.9 -1.9 2.1 -14.3 2.4 -4.7 0.1 -8.3 -0.2 -9 -0.9 -1.4 -1.4 -5.4 -1.4 -6.2 -0.1 -0.9 1.4 -4.1 1.2 -5.3 -0.3 -1.4 -1.6 -16.8 -2.2 -17.7 -0.7 -1 1.6 -5.7 1.2 -9.4 -0.8 -1.9 -0.9 -4.4 -3.5 -5.6 -5.7 -1.3 -2.2 -2.8 -3.9 -3.4 -3.8 -0.6 0.2 -1.1 -0.3 -1.1 -1.1 0 -0.7 -1.6 -2.1 -3.6 -3.1 -3.2 -1.5 -5.5 -1.6 -17.5 -1 -13.8 0.6 -13.8 0.6 -14.8 -3.2 -0.6 -2.1 -1.1 -4.4 -1.1 -5 0 -0.7 -0.6 -1.3 -1.3 -1.3 -0.7 0 -1.3 -0.8 -1.4 -1.7 -0.3 -3.3 -3 -15 -3.7 -16.1 -0.4 -0.6 -0.9 -4 -1.1 -7.5 -0.4 -6.5 -0.4 -6.5 5.5 -8.6 3.2 -1.2 9.8 -3.1 14.7 -4.3 4.8 -1.1 9.3 -2.5 9.9 -3 0.6 -0.4 1.4 -2.6 1.8 -4.8 0.4 -2.6 1.2 -4 2.1 -4 1.2 0 1.5 1.3 1.5 5.6 0 6 -1.4 8.4 -4.9 8.4 -1.2 0 -2.9 0.4 -3.9 0.9 -0.9 0.5 -6.1 2.2 -11.5 3.7 -9.6 2.7 -9.8 2.8 -9.2 5.3 0.9 3.6 1.2 3.7 4.8 1.8 2 -1 5.5 -1.6 9.2 -1.6 3.3 0 9.6 -0.3 14.1 -0.6 8.6 -0.8 15.4 0.7 15.4 3.2 0 1.6 2.6 2.9 7.5 3.6 3 0.5 4.8 0.2 7.1 -1.2 2.6 -1.6 5.4 -1.9 16.5 -2.1 17 -0.3 24.2 0.8 31.8 4.7 6.1 3.2 6.1 3.2 6.1 0.2 0 -2.6 0.3 -2.9 3.4 -2.9 3.3 0 3.3 0 7.1 11.3 2.1 6.1 5.5 14.7 7.6 19.1 2.2 4.3 3.9 8.7 3.9 9.7 0 1 0.6 1.9 1.4 1.9 1.6 0 2.6 2.1 2.6 5.6 0 1.7 0.6 2.4 2 2.4 1.1 0 2 0.6 2 1.4 0 0.8 0.7 1.6 1.5 2 0.8 0.3 1.5 1.2 1.5 2.1 0 0.8 0.5 1.5 1 1.5 0.6 0 1 0.8 1 1.9 0 1 0.9 2.1 2 2.4 1.5 0.4 2 1.4 2 3.6 0 2.6 0.4 3.1 2.4 3.1 3.2 0 4.8 2.2 4.4 6.2 -0.3 3.2 -0.3 3.2 -7.1 -4.7z"/>
  <path d="M632 496.8 c0 -3.8 1.5 -5.8 4.2 -5.8 1.3 0 1.8 -0.8 1.8 -2.5 0 -1.6 0.6 -2.5 1.5 -2.5 0.8 0 1.5 -0.9 1.5 -2 0 -1.1 0.7 -2 1.5 -2 0.8 0 1.5 -0.9 1.5 -2 0 -1.1 0.5 -2 1 -2 0.6 0 1 -0.7 1 -1.5 0 -0.8 0.5 -1.5 1 -1.5 0.6 0 1 -0.7 1 -1.5 0 -0.8 0.5 -1.5 1 -1.5 0.6 0 1 -0.6 1 -1.4 0 -0.8 0.6 -2.1 1.3 -2.8 3.9 -4.1 15.7 -33.9 17.3 -43.8 0.6 -3.8 0.8 -4 4.2 -4 3.5 0 3.5 0 2.8 6.4 -0.3 3.5 -1 7.7 -1.5 9.3 -0.5 1.5 -1.2 4.2 -1.5 5.8 -0.6 3 -0.6 3 2.6 -0.6 1.8 -2 6.7 -5.3 10.8 -7.3 4.1 -2.1 8.3 -4.6 9.3 -5.7 2.4 -2.5 13 -2.7 15.5 -0.3 2.2 2.3 24.1 1.6 29.1 -0.9 2.7 -1.3 6 -1.7 15.5 -1.6 6.7 0 14.2 0.4 16.9 0.8 4.9 0.8 6.7 -0.3 2 -1.2 -10 -2 -17.5 -3.7 -18.3 -4.2 -0.6 -0.3 -1 -2.4 -1 -4.6 0 -4.4 2 -5.3 4.8 -1.9 1.2 1.3 5.6 2.8 14.2 4.8 6.9 1.6 14.1 3.6 16.1 4.5 3.6 1.5 3.6 1.5 1.9 12.8 -1 6.3 -2.5 13.7 -3.3 16.4 -0.9 2.8 -1.8 6.2 -2.1 7.8 -0.6 2.7 -0.6 2.7 -7.9 2.1 -3.9 -0.3 -8.9 -1 -11.1 -1.6 -4.5 -1.1 -16.8 0 -17.8 1.6 -1.2 1.8 -0.9 3.1 0.4 1.8 2 -2 3 -1.4 1.1 0.6 -1 1.1 -2.1 1.7 -2.5 1.5 -0.3 -0.2 -1.5 0.8 -2.6 2.2 -1.7 2.2 -2.8 2.5 -8.2 2.5 -3.6 0 -7.6 -0.7 -9.5 -1.6 -4.1 -1.9 -11 -1.6 -10.9 0.6 0.1 1.7 0.2 1.7 -16.6 2.9 -6.9 0.5 -15.6 1.6 -19.3 2.4 -5.9 1.3 -6.9 1.3 -7.4 0.1 -0.3 -0.8 0.1 -2.2 0.8 -3.2 0.9 -1.1 0.5 -1 -1.1 0.4 -1.4 1.1 -4.2 3.1 -6.4 4.4 -3.6 2.2 -3.8 2.4 -2 3.7 1.6 1.2 1.7 1.5 0.4 2.3 -0.8 0.5 -1.8 1 -2.2 1 -0.4 0 -1.4 0.8 -2.4 1.7 -0.9 0.9 -3.7 2 -6.3 2.4 -2.5 0.3 -5.4 0.9 -6.3 1.3 -1.5 0.7 -1.5 0.4 -0.6 -3.1 0.7 -2.1 1.8 -4.5 2.5 -5.4 0.7 -0.8 1.3 -2.1 1.3 -2.7 0 -0.6 0.9 -2.6 2 -4.4 3.8 -6.2 2 -5.1 -2.1 1.3 -4.7 7.2 -15.8 21.8 -18.3 23.8 -1.4 1.2 -1.6 1 -1.6 -2.1z"/>
  <path d="M617.1 484.3 c0.8 -1 3.5 -4.2 6.2 -7.2 4.4 -5 12.7 -16.3 12.7 -17.5 0 -0.2 1.4 -2.8 3.2 -5.5 3 -5 3.3 -8.4 0.3 -4.5 -1.2 1.5 -1.6 1.6 -2.4 0.5 -0.6 -1 -2.1 -1.1 -6 -0.6 -4.2 0.6 -5.4 1.2 -6.1 3 -1.1 2.8 -2.2 3.2 -12.2 4.1 -4.6 0.4 -8.2 1.2 -8.9 2 -0.6 0.8 -2.6 1.4 -4.3 1.4 -1.7 0 -4.6 0.9 -6.4 2 -3.9 2.4 -12.7 2.8 -13.5 0.6 -0.3 -0.8 2.1 -4.9 5.4 -9.2 3.2 -4.3 5.9 -8.2 5.9 -8.6 0 -1.4 0.3 -2.2 2.6 -6.8 6.7 -13.6 8.3 -18.3 9.9 -29.2 0.5 -2.9 1.1 -3.8 2.5 -3.8 1.7 0 2 0.7 2 4.9 0 2.6 -0.5 6.2 -1.1 7.9 -2 5.8 -0.9 6.7 4.1 3 2.5 -1.8 4.7 -3.5 5 -3.9 2.1 -2.6 18.1 -5.6 25 -4.6 2.7 0.3 4.3 0.1 5.1 -0.9 0.6 -0.8 2.7 -1.4 4.5 -1.4 3.4 0 3.4 0 3.4 7 0 4 -0.4 7 -1 7 -0.5 0 -1 1.8 -1 4.1 0 5.1 -5.8 22.9 -7.5 22.9 -1.5 0 -2.5 2.2 -2.5 5.6 0 1.3 -0.9 3.3 -2 4.4 -1.1 1.1 -2 2.5 -2 3.1 0 2 -4.1 7.9 -5.5 7.9 -0.8 0 -1.5 1 -1.7 2.3 -0.2 1.4 -1.1 2.3 -2.5 2.5 -1.6 0.2 -2.3 1 -2.3 2.6 0 3.1 -4 6.6 -7.4 6.6 -2.6 0 -2.7 -0.2 -1.5 -1.7z"/>
  <path d="M410 482 c0 -1.1 -0.7 -2 -1.5 -2 -0.8 0 -1.5 -0.7 -1.5 -1.5 0 -0.8 -0.4 -1.5 -1 -1.5 -0.5 0 -1 -0.9 -1 -2 0 -1.1 -0.7 -2 -1.5 -2 -0.8 0 -1.5 -0.9 -1.5 -2 0 -1.1 -0.6 -2 -1.3 -2 -1.4 0 -4.7 -6 -4.7 -8.5 0 -0.7 -0.6 -2 -1.3 -2.7 -2.9 -3 -4.7 -6.4 -4.7 -9 0 -1.6 -0.4 -2.8 -1 -2.8 -2.2 0 -8 -23.5 -8 -32.8 0 -5.3 0 -5.3 3.8 -5 3 0.2 4 0.9 5.2 3.3 1.3 2.6 1.9 3 4 2.4 1.4 -0.4 6.3 -0.8 11 -0.9 9.6 -0.2 18.6 -1.3 19.7 -2.4 0.5 -0.4 0.8 -3.8 0.8 -7.4 0.2 -19.4 0.3 -20.2 2.9 -20.2 2.3 0 2.4 0.2 1.9 5.9 -0.8 9.1 2.2 31.1 4.8 34.6 1.3 1.8 4.7 11.5 3.8 10.9 -1.2 -0.7 -1.2 -0.4 0.6 4.6 2 5.8 1.9 7.9 -0.7 10 -1.8 1.4 -2 2.1 -1 3.2 0.6 0.8 0.9 1.8 0.5 2.1 -1.1 1.2 -2.1 0.8 -2.6 -1.2 -0.4 -1.6 -1.1 -1.9 -4.6 -1.4 -2.9 0.4 -5.6 -0.1 -9.4 -1.6 -4.3 -1.8 -5.8 -2 -7.8 -1.1 -3.5 1.6 -6.9 3.6 -8.2 4.9 -1.5 1.5 -4.4 1.4 -5 -0.1 -0.3 -0.8 -0.6 -0.6 -0.6 0.5 -0.2 3.1 -2 1.8 -2.7 -2 -0.3 -2.1 -1.8 -5.8 -3.3 -8.3 -1.4 -2.5 -3.1 -5.8 -3.8 -7.5 -1.9 -5 -1.4 -1.3 0.7 4.7 2.4 6.9 11.3 24 14.9 28.8 1.5 1.9 4.4 5.9 6.5 8.8 3.8 5.2 3.8 5.2 0.7 5.2 -2.4 0 -3.1 -0.4 -3.1 -2z"/>
  <path d="M648.9 398.3 c-0.1 -9.9 -0.8 -11.7 -4.7 -12.1 -2.9 -0.3 -3.2 -0.6 -3.2 -3.9 0 -3.6 0 -3.6 6.6 -3 3.6 0.2 6.8 0.7 7 1 0.3 0.3 0.8 6 1.1 12.6 0.6 12.1 0.6 12.1 -3.1 12.1 -3.6 0 -3.6 0 -3.7 -6.7z"/>
 </g>
 <g fill="#1f456e">
  <path d="M476.9 454.7 c-6 -4 -6.8 -12 -1.8 -17.3 2.2 -2.3 2.2 -2.3 -2 -23.6 -2.4 -11.7 -5.6 -27.9 -7.3 -36 -3.1 -14.6 -3.1 -14.6 -12 -15 -9.7 -0.3 -10.8 -0.9 -10.8 -6.5 0 -5.6 1.7 -6.3 15.5 -6.3 14.3 0 14.7 0.3 16 9.3 0.7 4.7 0.7 4.7 43.6 4.7 41.5 0 42.9 0.1 43.9 2 0.8 1.4 -0.1 7.2 -3.9 24.3 -2.8 12.3 -5.3 23 -5.6 23.9 -0.4 0.9 -1.6 1.9 -2.8 2.2 -1.2 0.3 -15.8 0.6 -32.5 0.6 -30.3 0 -30.3 0 -30 3.3 0.3 3.2 0.3 3.2 30.1 3.7 33.1 0.6 32.2 0.3 31.3 7.4 -0.4 3.1 0 4.2 2 6 5.4 4.7 4.6 13.2 -1.5 17.3 -4 2.7 -6.1 2.9 -10.5 0.8 -5.9 -2.8 -8.1 -9.6 -5.1 -15.5 1.6 -3 1.6 -3 -20.5 -3 -22.1 0 -22.1 0 -20.5 3 3 5.9 0.8 12.7 -5.1 15.5 -4.4 2.1 -6.5 1.9 -10.5 -0.8z"/>
 </g>
 <g fill="#0e448a">
  <path d="M530 549.2 c0 -1.5 1.7 -2.1 10.8 -3.6 5.9 -1.1 12.4 -2.1 14.5 -2.3 2 -0.3 3.7 -0.8 3.7 -1.2 0 -1 7.1 -3.1 10.4 -3.1 5.1 0 2.1 2.5 -6.4 5.3 -6.5 2.1 -28.6 6.7 -32.4 6.7 -0.3 0 -0.6 -0.8 -0.6 -1.8z"/>
  <path d="M476 525.1 c0 -0.4 -2.1 -1.1 -4.7 -1.4 -2.6 -0.3 -4.9 -1 -5.1 -1.6 -0.2 -0.6 -1.5 -1.1 -2.8 -1.1 -1.3 0 -2.4 -0.4 -2.4 -1 0 -0.5 -1.1 -1 -2.5 -1 -2 0 -2.5 -0.5 -2.5 -2.5 0 -2.5 0 -2.5 4.8 -0.5 2.6 1.1 8.6 3.2 13.5 4.7 9.1 2.9 11.5 5.3 5.2 5.3 -1.9 0 -3.5 -0.4 -3.5 -0.9z"/>
  <path d="M630.2 498.5 c0.3 -3.7 0.5 -4 3.6 -4.3 2.9 -0.3 3.2 -0.6 3.2 -3.8 0 -2.4 0.5 -3.4 1.5 -3.4 0.8 0 1.5 -0.9 1.5 -2 0 -1.1 0.7 -2 1.5 -2 0.8 0 1.5 -0.9 1.5 -2 0 -1.1 0.5 -2 1 -2 0.6 0 1 -0.7 1 -1.5 0 -0.8 0.9 -1.5 2 -1.5 1.6 0 2 -0.7 2 -3 0 -2 0.5 -3 1.5 -3 0.9 0 1.5 -0.9 1.5 -2.5 0 -2 0.5 -2.5 2.5 -2.5 1.4 0 2.5 0.3 2.5 0.6 0 2.5 -15.1 23.9 -22.9 32.4 -4.1 4.5 -4.1 4.5 -3.9 0.5z"/>
  <path d="M391 487.5 c-4.6 -6.2 -14.2 -21.6 -15.3 -24.7 -0.5 -1.4 -0.1 -1.8 1.8 -1.8 1.6 0 2.5 0.6 2.5 1.5 0 0.8 0.4 1.5 0.8 1.5 1.1 0 3.2 4.6 3.2 7 0 1.1 0.7 2 1.5 2 1 0 1.5 1 1.5 3 0 2.3 0.4 3 2 3 1.3 0 2 0.7 2 2 0 1.1 0.7 2 1.5 2 0.8 0 1.5 0.6 1.5 1.4 0 0.8 0.5 1.6 1.1 1.8 0.6 0.2 0.9 1.9 0.7 3.8 -0.3 3.5 -0.3 3.5 -4.8 -2.5z"/>
  <path d="M634 464.5 c0 -0.3 2 -4.2 4.4 -8.8 6.2 -11.4 11 -25.9 10.2 -30.9 -0.5 -3 -0.3 -3.8 0.9 -3.8 1.1 0 1.5 -1.1 1.5 -4.2 0 -4.1 0 -4.1 -2.3 -2 -2.6 2.4 -4.8 2.7 -7.8 1.1 -3.3 -1.7 -19.8 1.3 -21.9 4 -1.1 1.5 -7.8 5.8 -12.8 8.2 -5.4 2.6 -5.4 2.6 -4.9 -1 0.3 -2 1 -5.6 1.6 -8.1 2 -8.4 2.4 -11.7 1.1 -10 -1 1.3 -1.1 1.2 -0.6 -0.3 0.3 -1 0.6 -6.8 0.6 -12.8 0 -10.9 0 -10.9 2.5 -10.9 2 0 2.5 0.6 3 3.8 1.1 6.4 1.3 6.7 3.3 4.9 0.9 -0.8 4.2 -2.5 7.2 -3.7 3 -1.2 5.9 -2.5 6.3 -3 0.5 -0.4 -2 -1.1 -5.5 -1.5 -8.5 -1 -9.8 -1.8 -9.8 -6 0 -1.9 0.5 -3.5 1 -3.5 0.6 0 1 0.5 1 1 0 1.2 4.7 1.4 5.2 0.2 0.2 -0.5 3.9 -0.5 8.3 -0.1 4.4 0.4 12.3 1.1 17.5 1.5 5.3 0.4 10 1.3 10.7 2 2.7 2.6 1.2 34.1 -2.2 49.9 -1.4 6.4 -5.7 18.5 -6.6 18.5 -0.5 0 -0.9 0.9 -0.9 2 0 2.3 -3 9 -4.1 9 -0.4 0 -1 1.1 -1.3 2.5 -0.5 1.8 -1.3 2.5 -3.1 2.5 -1.4 0 -2.5 -0.2 -2.5 -0.5z"/>
  <path d="M656 460.5 c0 -1.9 0.4 -3.5 0.9 -3.5 0.5 0 1.1 -1.3 1.5 -3 0.3 -1.8 1.2 -3 2.1 -3 1 0 1.5 -1 1.5 -2.8 0 -1.6 0.9 -5.5 2.1 -8.8 4.9 -14.1 6.3 -22.3 6.6 -40.2 0.4 -17.2 0.4 -17.2 3.8 -17.2 3.5 0 3.5 0 3.7 14.3 0 7.8 0.3 12.7 0.5 11 0.2 -1.8 0.9 -3.3 1.4 -3.3 2.4 0 9.9 -4.2 9.9 -5.5 0 -1.1 1.2 -1.5 4.4 -1.5 2.5 0 4.8 0.5 5.1 1 0.3 0.6 2.1 1 3.9 1 1.9 0 3.9 0.6 4.5 1.4 1.1 1.4 4.5 1.1 6.6 -0.4 0.6 -0.4 3.3 -1.1 6.2 -1.5 3.1 -0.4 5.8 -1.4 6.9 -2.6 2 -2.3 7.9 -2.6 9.1 -0.5 1.5 2.8 17.2 1.2 19.8 -2 0.6 -0.7 3.9 -1.5 7.5 -1.9 3.6 -0.3 8.9 -0.9 11.8 -1.2 4.7 -0.4 5.2 -0.3 5.2 1.5 0 1.6 -1.3 2.2 -6.7 3.6 -3.8 0.9 -7.8 1.6 -9 1.6 -1.3 0 -3.2 0.9 -4.4 2.1 -1.8 1.8 -2 3 -1.7 9 0.2 4 -0.1 7.1 -0.7 7.3 -0.6 0.2 -0.6 0.8 0.1 1.5 0.9 1 6.2 2.3 18.7 4.8 1.5 0.3 2.7 0.9 2.7 1.3 0 0.4 1.5 1.1 3.3 1.4 8.3 1.6 10.7 8.3 3.6 10.1 -2 0.5 -3.2 0.1 -4.7 -1.5 -4.2 -4.5 -32.3 -6.8 -39.3 -3.3 -5 2.6 -32.8 3.3 -35.2 0.9 -2.2 -2.2 -7.2 -2 -9.4 0.3 -1 1.1 -5.1 3.6 -9.1 5.6 -4.2 2 -9.2 5.5 -11.6 8 -2.3 2.5 -5 4.5 -5.9 4.5 -0.9 0 -2 0.8 -2.6 1.7 -1.7 3.2 -2.5 0.3 -1.3 -5 0.6 -2.9 1.4 -6.3 1.7 -7.7 0.3 -1.4 -0.5 0.4 -1.8 4 -3.7 10.1 -9.5 22 -10.6 22 -0.6 0 -1.1 -1.6 -1.1 -3.5z"/>
  <path d="M372.9 456.8 c-0.7 -1.3 -2.9 -7.2 -5 -13.3 -2.8 -8 -3.9 -10.2 -4 -8 -0.1 1.7 -0.1 3.3 0 3.8 0.2 1.6 -3.7 0.5 -7 -1.9 -5.1 -3.9 -11.7 -6.6 -17.1 -7 -2.7 -0.2 -5.8 -0.8 -6.9 -1.4 -2.1 -1.2 -6.9 -0.6 -10.7 1.2 -1.7 0.9 -2.5 0.9 -3.4 0 -1.8 -1.8 -6.3 -1.4 -10.3 0.9 -3.1 1.9 -4.5 2.1 -10.2 1.5 -7.2 -0.7 -10.3 -1.9 -10.3 -4 0 -1.8 -7.2 -4 -10.1 -3.1 -1.3 0.5 -6.4 0.9 -11.4 1 -9.6 0.3 -14.1 1.7 -15 4.7 -0.4 1 -1.3 1.8 -2.1 1.8 -0.8 0 -1.7 0 -2.1 0.1 -0.4 0 -1.4 -2.1 -2.2 -4.8 -1.5 -4.8 -1.5 -4.8 -2.2 -0.8 -0.3 2.2 -0.7 3.1 -0.8 2 -0.1 -1.1 -0.4 -3.8 -0.6 -6 -0.4 -3 -0.3 -3.5 0.4 -2 0.9 1.8 1 1.7 1.1 -1 0.2 -1.6 0.2 -3.4 0.1 -3.8 -0.1 -0.5 0.8 -0.5 2 -0.2 1.5 0.5 1.9 0.4 1.4 -0.5 -0.5 -0.9 -0.1 -1 1.5 -0.5 1.4 0.4 2 0.3 1.6 -0.3 -0.6 -1 2.3 -2.6 3.2 -1.7 0.3 0.3 -0.1 0.5 -0.8 0.5 -0.7 0 -1.1 0.3 -0.8 0.6 0.3 0.3 2.5 0 4.7 -0.7 2.4 -0.7 3.7 -1.5 3 -1.9 -0.6 -0.4 0.3 -0.9 2 -1.2 1.7 -0.3 3.1 0 3.1 0.6 0 0.6 0.5 0.5 1.2 -0.2 0.7 -0.7 2.8 -1.2 4.8 -1.2 2.6 0 3.1 -0.3 2 -1 -1.3 -0.9 -0.7 -1.4 1.2 -1.1 1.2 0.2 0.9 -11.8 -0.2 -14 -0.7 -1.2 -2.1 -1.9 -4.1 -1.9 -2 0 -2.8 -0.4 -2.3 -1.2 0.4 -0.7 0.3 -0.8 -0.5 -0.4 -1.6 1 -23.6 -4.1 -25 -5.8 -0.7 -0.9 -0.9 -4.9 -0.4 -12 0.6 -10.3 0.7 -10.6 3 -10.6 2.3 0 2.3 0.2 2.3 10 0 5.5 0.1 10 0.3 10.1 0.1 0 3.6 0.2 7.7 0.5 4.1 0.3 7.9 1 8.5 1.5 0.5 0.5 2 0.9 3.3 0.9 4.3 0 10.2 2.2 10.3 3.9 0 1 0.2 1.2 0.6 0.4 0.6 -1.6 11 -1.7 14.9 -0.2 3.7 1.4 17.8 2.9 34.9 3.8 13 0.6 14.3 0.9 18 3.4 2.3 1.6 5.3 2.7 7.2 2.7 3.1 0 3.3 -0.2 3.9 -5 0.6 -4.9 0.8 -5 4 -5 3.2 0 3.3 0.1 3.8 5.2 0.3 2.9 0.8 9.4 1.1 14.3 0.3 5 1.4 12.8 2.6 17.5 1.1 4.7 2.3 10.1 2.6 12 0.3 1.9 1.2 4 1.9 4.8 0.8 0.7 1.4 2.5 1.4 3.8 0 1.4 0.7 3.2 1.5 4 1.6 1.7 2.1 8.4 0.5 8.4 -0.5 0 -1.5 -1 -2.1 -2.2z"/>
  <path d="M381.4 422.5 c-0.3 -2.5 -0.4 -5.4 -0.1 -6.5 0.3 -1 0 -2.1 -0.5 -2.2 -0.7 -0.3 -0.7 -6.6 -0.3 -18.1 0.8 -17.7 0.8 -17.7 4.1 -17.7 3.3 0 3.3 0 3.6 5.6 0.3 5.5 0.3 5.5 2.6 3.3 3.4 -3.1 8.4 -4 19.4 -3.3 9.7 0.7 9.7 0.7 13.6 -2.5 2.2 -1.7 4.9 -3.1 6 -3.1 1.8 0 2 0.4 1.5 3.8 -0.3 2 -1 3.9 -1.4 4.2 -0.5 0.3 -1 6.5 -1.1 13.7 -0.2 7.2 -0.7 13.5 -1.1 13.9 -1.3 1.3 -11 2.6 -19.2 2.4 -4.7 0 -10 0.5 -13 1.4 -6.5 2 -7.5 2 -7.5 -0.3 0 -1 -0.9 -2.9 -2.1 -4.2 -2 -2.4 -2 -2.4 -1.5 2.6 0.3 2.8 0.8 6.5 1.2 8.3 0.6 2.8 0.4 3.2 -1.4 3.2 -1.7 0 -2.2 -0.8 -2.8 -4.5z"/>
  <path d="M278 349.5 c0 -2.5 0 -2.5 17.5 -2.5 17.5 0 17.5 0 17.5 2.5 0 2.5 0 2.5 -17.5 2.5 -17.5 0 -17.5 0 -17.5 -2.5z"/>
 </g>
 <g fill="#154e97">
  <path d="M612 515.1 c0 -2.9 0.3 -3.1 3.5 -3.1 3.2 0 3.5 -0.2 3.5 -3 0 -2.3 0.4 -3 2 -3 1.3 0 2 -0.7 2 -1.8 0 -1 1.5 -3.3 3.4 -5.1 2.5 -2.5 4.1 -3.2 6.2 -2.9 2.8 0.3 2.7 0.5 -5.7 8.9 -4.8 4.7 -10 9.6 -11.8 10.8 -3.1 2.2 -3.1 2.2 -3.1 -0.8z"/>
  <path d="M373.9 458.4 c-5.8 -12.8 -10.3 -28.4 -12.4 -42.6 -0.6 -4.4 -0.4 -4.8 1.4 -4.8 1.3 0 2.1 0.6 2.1 1.8 0 3.4 4.4 24.7 5.3 25.3 0.5 0.3 1.1 2.5 1.4 4.8 0.3 2.2 1 4.1 1.4 4.1 0.5 0 0.9 1.6 0.9 3.5 0 2.3 0.5 3.5 1.3 3.5 1.8 0 3.7 4.3 3.7 8 0 4.8 -1.9 3.5 -5.1 -3.6z"/>
  <path d="M665.3 437.3 c0.9 -7.1 5 -23.8 6 -24.4 1.2 -0.8 0 -22.1 -2 -34.9 -0.8 -5.2 -1.7 -11.7 -2 -14.5 -0.3 -2.7 -1 -5.3 -1.5 -5.6 -0.6 -0.4 -1.3 -2.7 -1.5 -5.3 -0.6 -4.6 -0.6 -4.6 3 -4.6 3.6 0 4.7 1.5 4.7 6.8 0 1.2 0.4 2.2 0.9 2.2 0.9 0 1.7 3.1 2.8 10.2 0.5 3.7 3.3 5.6 3.3 2.3 0 -3 3.9 -3.7 15.5 -3 10.2 0.6 11.5 0.5 15.1 -1.4 2.7 -1.5 5.7 -2.1 9.9 -2.1 7.1 0 18.7 -1.8 19.5 -2.9 0.3 -0.5 3.3 -1.2 6.7 -1.6 4.8 -0.5 7 -0.3 9.4 0.9 1.8 0.9 4 1.6 4.9 1.6 0.9 0 2.5 0.9 3.5 2 1.5 1.6 3.1 2 8.9 2 9.2 0 14.6 1.5 14.6 4 0 1 0.5 2.2 1 2.5 0.6 0.3 1 -0.3 1 -1.4 0 -3 3.8 -2.8 4.4 0.1 1.2 5.8 1.6 19.8 0.5 19.8 -0.5 0 -0.8 0.4 -0.4 0.9 0.3 0.5 0.1 1.2 -0.5 1.6 -0.5 0.3 -1 0.1 -1 -0.4 0 -1.6 -3.2 -1.3 -5.7 0.4 -1.4 1 -4.2 1.5 -7.5 1.4 -8.1 -0.1 -19.1 1.4 -19.6 2.9 -0.2 0.6 0.1 1.2 0.7 1.2 0.6 0 0.8 0.7 0.5 1.5 -0.4 0.8 -1 1.2 -1.5 0.9 -0.5 -0.3 -0.7 -1 -0.4 -1.5 0.9 -1.4 -3.4 -0.9 -9.5 1 -3.6 1.2 -6.1 1.5 -7.2 1 -1 -0.5 -2.7 -0.5 -4.3 0.1 -2.3 0.9 -2.7 0.7 -3.6 -1.7 -1 -2.6 -1 -2.6 -3.2 -0.6 -2 1.9 -5 3 -10.2 3.7 -1.1 0.2 -2.7 0.6 -3.5 0.9 -0.8 0.3 -3.3 1.1 -5.5 1.6 -3.4 0.9 -4.2 0.8 -6 -0.9 -1.2 -1.1 -3.5 -2 -5.3 -2 -1.7 0 -3.4 -0.4 -3.7 -1 -0.9 -1.5 -3.5 -1.2 -3.5 0.5 0 1.3 -7.5 5.5 -9.9 5.5 -0.6 0 -1.1 1.3 -1.1 2.9 0 1.6 -0.7 3.5 -1.6 4.2 -0.9 0.7 -2 2.4 -2.5 3.7 -0.7 1.7 -1.4 2.2 -2.8 1.7 -2.1 -0.6 -2.4 0 -3.6 6.5 -1.6 8.7 -3.8 15 -5.2 15 -1.2 0 -1.4 -0.9 -1 -3.7z"/>
  <path d="M355.7 409.3 c-0.4 -0.3 -0.7 -1.4 -0.7 -2.4 0 -1 -0.7 -1.6 -1.7 -1.5 -1 0 -1.8 -0.5 -1.8 -1.3 0 -0.8 -1.1 -1.5 -2.6 -1.5 -1.5 -0.1 -4.6 -1.5 -7 -3.1 -4.2 -2.7 -5 -2.9 -16 -3.1 -6.4 -0.1 -14 -0.7 -16.8 -1.4 -2.8 -0.7 -6.1 -1 -7.3 -0.7 -1.1 0.3 -4.8 -0.1 -8.2 -1 -3.4 -0.9 -7.8 -1.6 -9.9 -1.7 -3.1 -0.1 -3.9 0.3 -4.3 2.1 -0.5 2 -0.8 2.1 -2.1 0.7 -0.9 -0.8 -2.2 -1.3 -2.9 -1 -1.2 0.5 -1.8 -0.5 -1.6 -2.5 0.1 -0.8 -4 -2 -8.6 -2.4 -1.8 -0.2 -3.9 -0.8 -4.6 -1.4 -0.7 -0.6 -4.9 -1.2 -9.2 -1.3 -8 -0.3 -8 -0.3 -7.8 -10.8 0.1 -8.7 0 -9.6 -0.6 -5 -0.7 4.7 -0.8 4.2 -0.5 -3.6 0.2 -6.5 0.7 -9.9 1.9 -11.5 0.9 -1.3 1.6 -3.1 1.6 -4.1 0 -1 0.5 -1.8 1.1 -1.8 0.5 0 0.7 -0.5 0.4 -1 -0.4 -0.6 3.2 -1 10.2 -0.9 7 0 10.1 0.3 8.8 0.9 -1.7 0.7 -1.7 0.9 -0.2 0.9 0.9 0.1 1.7 0.8 1.7 1.6 0 1.2 -1.6 1.5 -8.5 1.5 -6.8 0 -8.7 0.3 -9.2 1.5 -0.9 2.5 0.3 2.9 9 3.8 10 0.9 9.5 0.9 29.1 0.2 13.7 -0.4 17.2 -0.2 26 1.6 13.6 2.9 20.8 3.9 29 4 9.2 0.1 14.6 2.2 14.6 5.8 0.1 2.5 0.1 2.5 1.5 0.7 0.8 -1.1 1.5 -3 1.5 -4.3 0 -2 0.5 -2.3 3.5 -2.3 3.3 0 3.5 0.2 3.5 3.3 0 1.7 -0.7 7.3 -1.5 12.2 -0.8 5 -1.5 11.8 -1.5 15.1 0 4.5 -0.4 6.3 -1.4 6.7 -1.1 0.5 -1.7 -0.6 -2.2 -4.1 -0.8 -4.7 -0.8 -4.7 -1.6 -0.7 -0.4 2.2 -0.8 5.8 -0.8 8 -0.1 4.2 -1.2 7 -2.3 5.8z"/>
  <path d="M380.3 389.2 c0.8 -17.3 3.2 -29.6 7.4 -39 1.3 -2.7 2.1 -3.2 4.9 -3.2 3.1 0 3.4 0.3 3.4 3 0 1.7 -0.6 4.5 -1.4 6.3 -1.3 3.3 -1.3 3.3 7.8 4.6 5 0.8 11.4 1.8 14.1 2.3 2.8 0.5 8 1.2 11.6 1.5 6.7 0.5 6.7 0.5 5.3 5.6 -0.8 2.9 -1.4 6.2 -1.4 7.4 0 1.5 -1.7 3.6 -5.2 6.4 -4.1 3.2 -5.8 4 -8 3.5 -1.7 -0.3 -3.3 0 -4.2 0.9 -1.8 1.9 -2.6 1.9 -2.6 0.1 0 -0.9 -0.8 -1.2 -2.5 -0.8 -1.4 0.2 -3.1 -0.1 -3.9 -0.7 -2.4 -2 -9.3 0.3 -13.2 4.3 -5.3 5.5 -6.5 4.7 -7.5 -4.9 -0.6 -5.6 -0.6 -5.5 -0.8 3 -0.2 10.6 -0.8 13.5 -2.9 13.5 -1.3 0 -1.4 -1.8 -0.9 -13.8z"/>
  <path d="M604.2 394 c-0.1 -5.2 -0.5 -11.9 -0.8 -14.7 -0.7 -5.2 -0.6 -5.3 2 -5.3 1.5 0 2.6 0.6 2.6 1.4 0 0.9 0.8 1.2 2.5 0.8 1.5 -0.2 2.5 0 2.5 0.7 0 0.6 1.1 1.1 2.5 1.1 1.4 0 2.5 -0.4 2.5 -1 0 -0.5 0.9 -1 2 -1 1.1 0 2 0.7 2 1.5 0 0.8 0.9 1.5 2 1.5 1.1 0 2 -0.4 2 -1 0 -0.5 1.6 -1 3.5 -1 2.8 0 3.5 0.4 3.5 2 0 2.1 -1.8 2.2 -15.5 0.4 -7.4 -0.9 -2.1 1.8 5.7 3 4 0.6 7.2 1.5 7 1.9 -0.2 0.5 0.7 1.7 1.9 2.8 2.1 1.8 2.1 1.9 0.3 2.5 -7.7 2.5 -15.3 5.9 -17.2 7.7 -3.5 3.2 -7 3 -7.7 -0.5 -1.8 -9.3 -2 -9.5 -2.6 -1.3 -0.5 8 -0.5 8 -0.7 -1.5z"/>
  <path d="M298.6 353.2 c-0.4 -0.7 -2.9 -0.9 -7.1 -0.5 -6.2 0.6 -6.5 0.5 -6.5 -1.6 0 -1.9 0.6 -2.1 5.8 -2.3 5.7 -0.1 5.7 -0.1 -0.3 -0.8 -3.5 -0.4 3.9 -0.7 18.2 -0.8 15.2 -0.1 24.4 0.2 24.8 0.8 0.3 0.6 2.5 1 4.8 0.9 3.3 0 3.8 -0.2 2.2 -0.9 -1.8 -0.8 -1.7 -0.9 0.8 -0.9 1.6 -0.1 3.7 -0.6 4.8 -1.1 1.7 -1 1.9 -0.7 1.9 2.5 0 4.1 1.8 3.8 -22 3.9 -9.1 0.1 -18.8 0.5 -21.6 1 -3.5 0.6 -5.3 0.5 -5.8 -0.2z"/>
 </g>
 <g fill="#1c57a2">
  <path d="M391.8 488.3 c-4.9 -6.7 -14.4 -22.2 -15.8 -25.8 -0.8 -2.2 -0.7 -2.5 1.4 -2.5 2.6 0 3.6 1.7 3.6 6.1 0 2.2 0.5 2.9 2 2.9 1.5 0 2 0.7 2 2.5 0 1.6 0.6 2.5 1.5 2.5 1 0 1.5 1 1.5 3 0 2.3 0.4 3 2 3 1.6 0 2 0.7 2 3.5 0 3.1 0.3 3.5 2.5 3.5 2.2 0 2.5 0.4 2.5 3.5 0 1.9 -0.2 3.5 -0.5 3.5 -0.2 0 -2.4 -2.6 -4.7 -5.7z"/>
  <path d="M361.4 382.8 c0.4 -3.5 1 -7.6 1.3 -9.3 0.4 -2.3 0.2 -2.7 -0.6 -1.5 -0.6 0.8 -1.1 2.7 -1.1 4.3 0 2.6 -1.4 3.4 -3.5 1.9 -1.6 -1.1 -3.5 -5 -3.5 -7.1 0 -2.2 -5 -4.6 -8.9 -4.3 -3.7 0.3 -24 -2.4 -34.6 -4.6 -11.2 -2.2 -29.8 -2.1 -38.6 0.2 -1.5 0.4 -4.3 0.1 -7 -0.8 -2.4 -0.9 -7.1 -1.6 -10.4 -1.6 -7.8 0 -8.7 -0.7 -8.3 -6.1 0.3 -4.4 0.3 -4.4 27.5 -4.6 15 -0.1 27.5 0.2 27.8 0.7 0.3 0.5 2 0.4 3.8 -0.1 1.7 -0.5 10.2 -0.9 18.7 -0.9 8.5 0.1 16.9 0.1 18.5 0 3 -0.3 3 -0.3 -0.5 -1 -3.5 -0.7 -3.5 -0.7 -0.3 -0.9 3.2 -0.1 5.2 -1.6 8 -5.7 1.7 -2.7 3.3 -3.1 3.3 -0.9 0 1.1 1 1.3 4.9 0.8 2.7 -0.3 7.4 -0.2 10.5 0.1 5.5 0.7 5.6 0.8 5.6 4.1 0 1.8 -1.1 6.1 -2.4 9.6 -2.7 7.3 -6.6 25.1 -6.6 30.3 0 3 -0.4 3.6 -2.1 3.6 -2 0 -2.1 -0.3 -1.5 -6.2z"/>
  <path d="M670 385.7 c0 -9.6 -6.9 -37.9 -11.4 -46.6 -0.9 -1.7 -1.6 -4.6 -1.6 -6.6 0 -3.2 0.2 -3.5 3.1 -3.5 3.7 0 5.2 1.4 7 6.3 1.5 4.2 2.9 4.9 2.9 1.4 0 -4.2 3.5 -5.9 11.9 -5.9 4.2 0.1 15.3 0.1 24.6 0.1 17.6 0.1 32.4 2 37.8 4.8 2.4 1.3 2.7 1.2 2.7 -0.1 0 -1.3 1.2 -1.6 5.5 -1.6 5.7 0 7 1.1 3.5 3 -1.4 0.8 -2 2.1 -2 4.6 0 4.3 2.4 10.4 4.2 10.5 0.7 0 7.8 0.1 15.8 0.1 10.3 0 13.2 0.3 10 0.8 -4.5 0.8 -4.5 0.8 1.2 0.7 7.2 -0.2 7.5 0.3 8.1 13.8 0.3 5.5 0.3 9 0 7.7 -0.4 -2.3 -0.4 -2.3 -2.4 0.2 -1.6 2 -2.4 2.3 -4.2 1.7 -1.2 -0.5 -2.3 -1.3 -2.3 -2 -0.1 -0.6 -0.2 -2 -0.3 -3.1 -0.1 -2.5 -5.4 -4 -14.7 -4 -5.7 0 -7.4 -0.4 -8.8 -1.9 -1 -1.1 -2.4 -1.7 -3.2 -1.4 -0.8 0.3 -2.4 -0.3 -3.4 -1.2 -2.2 -2 -10.9 -2.3 -12 -0.4 -0.4 0.5 -1.8 1.1 -3.1 1.4 -3.9 0.6 -20.2 2.3 -22.6 2.3 -2.4 0.1 -7.3 2.9 -7.3 4.4 0 0.5 -0.8 0.4 -1.9 -0.2 -1.4 -0.7 -2.1 -0.6 -2.4 0.3 -0.3 0.9 -0.9 0.9 -2.8 0 -2.9 -1.4 -14.8 -2.7 -17.2 -1.8 -0.9 0.4 -2.6 2.7 -3.9 5.1 -2.6 5.2 -6.2 6.3 -5.3 1.7 0.3 -1.6 0.2 -2.2 -0.1 -1.5 -1 2.2 -2.4 0.2 -2.4 -3.6 0 -2 -0.5 -4.4 -1 -5.2 -1.1 -1.6 -0.8 2 1.1 12.9 1.4 8.4 1.2 10.1 -1.1 10.1 -1.6 0 -2 -0.7 -2 -3.3z"/>
  <path d="M605.5 379.8 c-0.8 -1.8 -1.5 -2.8 -1.5 -2.3 -0.2 1.1 -1.7 -3.1 -3 -8.2 -0.7 -2.9 -0.5 -3.3 1.1 -3.3 2 0 2.7 -3.4 0.9 -4.5 -0.5 -0.3 -1 0.1 -1 0.9 0 0.9 -0.6 1.6 -1.3 1.6 -1 0 -2.9 -3.4 -5.4 -9.7 -0.4 -0.9 0.5 -1.3 2.5 -1.3 1.7 0 3.3 -0.6 3.6 -1.2 1.4 -3.4 10 13.1 11.2 21.5 0.6 4.1 1 4.7 3 4.7 1.3 0 2.4 -0.4 2.4 -1 0 -0.5 1.1 -1 2.5 -1 1.8 0 2.5 0.5 2.5 2 0 1.9 -0.4 2 -5.4 1.4 -4.8 -0.6 -5.5 -0.4 -6.5 1.5 -1.7 3.1 -4 2.6 -5.6 -1.1z"/>
  <path d="M430 369 c0 -0.5 -2.1 -1 -4.7 -1 -2.6 0 -6 -0.4 -7.7 -0.9 -1.7 -0.6 -7.5 -1.7 -12.9 -2.6 -8.9 -1.4 -10.1 -1.4 -12.2 -0.1 -1.7 1.1 -2.5 1.2 -2.7 0.4 -0.5 -1.4 0.6 -8.5 1.7 -11.3 0.5 -1.2 0.4 -1.7 -0.1 -1.2 -0.5 0.5 -1.8 3.6 -2.9 6.9 -2.2 6.7 -4.5 8.8 -4.5 4.1 0 -4.1 2.7 -12.8 6.1 -19.5 1.6 -3.2 2.9 -6.5 2.9 -7.3 0 -3.2 4.4 -9.5 6.7 -9.5 1.9 0 2.2 -0.6 2.5 -4.3 0.3 -4.1 0.4 -4.2 4.1 -4.5 3.5 -0.3 3.7 -0.2 3.7 2.7 0 4.5 -1 6.1 -3.6 6.1 -2 0 -2.4 0.5 -2.4 2.9 0 2.7 0.1 2.8 6.6 3.4 3.8 0.4 7.4 1.3 8.4 2.2 0.9 0.8 2.2 1.5 2.8 1.5 0.6 0 2.6 0.6 4.4 1.4 1.8 0.8 5 1.8 7.2 2.1 2.4 0.4 5.1 1.9 7.3 4 3.2 3.2 3.4 3.5 1.9 5 -1.7 1.7 -6.6 11.8 -6.6 13.6 0 0.6 -0.9 2.4 -2.1 4 -2 2.9 -3.9 3.8 -3.9 1.9z"/>
 </g>
 <g fill="#2361ad">
  <path d="M634 493.8 c0 -3.1 0.3 -3.8 2 -3.8 1.5 0 2 -0.7 2 -2.5 0 -1.6 0.6 -2.5 1.5 -2.5 0.8 0 1.5 -0.9 1.5 -2 0 -1.1 0.7 -2 1.5 -2 0.8 0 1.5 -0.9 1.5 -2 0 -1.3 0.7 -2 2 -2 1.6 0 2 -0.7 2 -3 0 -2.6 0.4 -3 2.6 -3 2.1 0 2.5 0.4 2 1.7 -0.9 2.2 -10.6 15.6 -15.1 20.8 -3.4 4 -3.4 4 -3.5 0.3z"/>
  <path d="M616.8 485.3 c1.1 -1.6 3.4 -4.1 5.2 -5.8 4.1 -3.9 11.9 -14.5 16 -21.7 1.7 -3.2 3.6 -5.8 4.1 -5.8 0.5 0 0.9 1.6 0.9 3.5 0 2.4 -0.5 3.5 -1.5 3.5 -0.9 0 -1.5 0.9 -1.5 2.5 0 1.6 -0.6 2.5 -1.5 2.5 -0.9 0 -1.5 0.9 -1.5 2.5 0 1.6 -0.6 2.5 -1.5 2.5 -0.8 0 -1.5 0.9 -1.5 2 0 1.1 -0.7 2 -1.5 2 -0.8 0 -1.5 0.9 -1.5 2 0 1.6 -0.7 2 -3 2 -2.7 0 -3 0.3 -3 3.3 0 3.9 -3.7 7.7 -7.5 7.7 -2.6 0 -2.6 0 -0.7 -2.7z"/>
  <path d="M371.5 451.9 c-1 -1.6 -7.5 -22 -7.5 -23.6 0 -0.7 0.8 -1.3 1.8 -1.3 1.4 0 2.3 1.4 3.5 6 1 3.3 1.7 6.8 1.7 7.9 0 1.1 0.5 2.1 1.1 2.3 1.5 0.5 2.5 9.8 1.1 9.8 -0.6 0 -1.4 -0.5 -1.7 -1.1z"/>
  <path d="M362 380.4 c0 -3.6 4.4 -22.4 6.6 -28.3 1.3 -3.5 2.2 -6.6 2 -6.9 -0.6 -0.6 -11.7 -0.7 -13.6 -0.1 -0.8 0.3 -2.1 0.8 -2.7 1.2 -0.7 0.5 -1.3 0.5 -1.3 0 0 -0.4 -0.5 0 -1.1 1 -1.9 3.2 -3.1 1.9 -2.4 -2.5 0.7 -4.2 4.7 -12.3 7 -14.3 0.7 -0.5 2.5 -2.8 4.1 -5 3.3 -4.5 6.1 -7.5 7 -7.5 0.3 0 0.4 1.8 0.2 4 -0.3 3.3 0 4 1.4 4 1 0 1.8 0.7 1.8 1.5 0 0.8 0.4 1.5 0.8 1.5 0.5 0 1.8 0.9 3 2 3 2.8 2.8 8.6 -0.4 17.5 -3.5 9.3 -8.4 27.3 -8.4 30.8 0 2 -0.5 2.7 -2 2.7 -1.1 0 -2 -0.7 -2 -1.6z"/>
  <path d="M669 378.6 c0 -4.2 -2.9 -16.6 -6.1 -26.6 -3.8 -11.4 -9.1 -23 -14.7 -32.4 -2.8 -4.5 -4.2 -8 -4.2 -10.3 0 -3.5 0 -3.5 4.5 -3.2 4.1 0.3 4.8 0 8 -3.5 3.5 -3.9 3.5 -3.9 10 -3.3 3.6 0.4 7.4 1.1 8.5 1.7 2.4 1.3 9.3 1.5 36.7 1.1 19.1 -0.3 19.1 -0.3 25.5 2.9 3.5 1.8 9.1 3.6 12.8 4.2 3.8 0.6 8.1 2 10.2 3.4 2.1 1.3 4.6 2.4 5.7 2.4 1 0 2.4 0.7 3.2 1.6 1.3 1.6 7.4 4.7 11.7 5.9 3.2 0.9 2.7 2.4 -1.5 4.1 -2.1 0.9 -8.8 3.8 -15 6.5 -6.2 2.7 -11.8 4.6 -12.7 4.3 -1.1 -0.4 -1.6 -0.1 -1.6 1 0 0.9 -0.4 1.6 -1 1.6 -0.5 0 -1 0.7 -1 1.6 0 0.8 -0.4 1.3 -0.9 1 -0.4 -0.3 -2.3 -0.8 -4.2 -1.1 -1.9 -0.3 -5 -0.8 -6.9 -1.2 -3.5 -0.8 -3.5 -0.8 1 -1.3 5.5 -0.7 4.3 -1.3 -8 -3.5 -8 -1.5 -11 -1.6 -19.2 -0.7 -7.5 0.8 -11.3 0.8 -17.5 -0.3 -8.6 -1.5 -16.7 -1 -15.9 1 0.2 0.7 -0.3 1.2 -1.2 1.1 -1.1 -0.1 -1.8 0.8 -2 2.5 -0.2 1.7 -1.2 3.1 -2.8 3.8 -3 1.3 -4.3 0.4 -6.4 -4.9 -1.3 -3.2 -4 -7 -4 -5.5 0 0.3 0.7 1.9 1.6 3.6 2.7 5.4 8.2 24.2 9.8 33.8 2 11.7 2 11.1 -0.4 11.1 -1.5 0 -2 -0.7 -2 -2.4z"/>
  <path d="M612.7 378.3 c-0.2 -0.5 -1 -3.6 -1.8 -7 -1.4 -6.6 -3.3 -8.6 -2.8 -3 0.4 3.7 -0.6 4.1 -4.4 1.9 -2.6 -1.6 -3.6 -3.7 -5.2 -11.5 -0.3 -1.5 -0.9 -2.5 -1.4 -2.3 -0.5 0.3 -1.4 -0.8 -2.1 -2.4 -0.7 -1.6 -2.8 -5.1 -4.6 -7.7 -2.7 -3.7 -3.1 -4.9 -1.9 -5.1 1 -0.2 1.5 -1.5 1.5 -3.8 0 -1.9 0.4 -3.4 0.9 -3.4 2.8 0 13.9 17.5 13.3 20.8 -0.2 0.7 0.2 1.1 0.9 1 0.6 -0.2 1.4 0.3 1.7 1.1 0.3 0.9 0 1.1 -0.9 0.7 -0.8 -0.4 -0.6 -0.1 0.3 0.7 2.4 2 5.7 9.6 6.4 15.1 0.4 2.9 1.2 4.7 2.3 4.9 1.4 0.4 1.4 0.5 -0.1 0.6 -0.9 0 -1.9 -0.2 -2.1 -0.6z"/>
  <path d="M389.3 347.3 c0.8 -5.6 3 -11.3 4.4 -11.3 0.7 0 1.3 -1.2 1.3 -2.7 0 -3.3 5.4 -12.4 12.5 -21.1 4.5 -5.6 5.4 -6.2 8.8 -6.2 3.4 0 3.7 0.2 3.7 2.9 0 2.8 0.2 2.9 3.3 2.5 1.7 -0.3 7.4 0.4 12.4 1.5 5.1 1.2 11.3 2.1 13.7 2.1 3.6 0 4.8 0.5 6.8 2.9 1.5 1.7 3.9 3.1 6.2 3.5 3.7 0.7 3.7 0.7 -4.7 8.9 -4.6 4.5 -9.7 10.5 -11.3 13.2 -1.5 2.8 -3.3 5.5 -3.9 6 -1.6 1.6 -3.5 1.6 -3.5 0.2 0 -1.8 -3.4 -4.9 -4.3 -4 -0.4 0.3 -0.7 0.1 -0.7 -0.5 0 -0.7 -0.3 -1.1 -0.7 -1 -0.5 0 -1.6 -0.2 -2.6 -0.7 -0.9 -0.4 -2.8 -0.5 -4.2 -0.3 -1.3 0.3 -2.2 0.2 -2 -0.2 0.5 -0.8 -3.8 -3 -5.7 -3 -0.6 0 -1.9 -0.6 -2.7 -1.4 -0.9 -0.7 -3.2 -1.6 -5.2 -2 -3 -0.5 -3.8 -0.3 -4.3 1.1 -0.4 1 -0.7 2 -0.6 2.1 0.1 0.2 -1 1.6 -2.5 3.1 -1.4 1.6 -2.5 3.2 -2.3 3.7 0.2 0.5 -0.1 1.1 -0.7 1.3 -0.5 0.2 -2 0.7 -3.2 1.2 -2.1 0.8 -2.3 0.6 -2.3 -2.4 -0.1 -3.2 -0.1 -3.2 -2.1 0.6 -1.1 2 -2.4 3.7 -3 3.7 -0.7 0 -0.9 -1.4 -0.6 -3.7z"/>
 </g>
 <g fill="#2d6dbc">
  <path d="M485.9 548.4 c-8.9 -1.6 -22 -5.6 -29.9 -9.1 -8.1 -3.7 -22 -11.5 -22 -12.5 0 -0.4 1.6 -0.8 3.5 -0.8 2.8 0 3.5 0.4 3.5 2 0 1.6 0.7 2 3.4 2 1.9 0 4.1 0.7 5 1.5 0.8 0.8 2.2 1.5 3 1.5 0.9 0 1.6 0.7 1.6 1.5 0 1 1 1.5 3 1.5 1.7 0 3 0.5 3 1 0 0.6 0.7 1 1.6 1 1 0 6 1.4 11.3 3.1 5.2 1.7 12.8 3.6 16.8 4.2 5.9 0.9 7.3 1.5 7.3 2.9 0 2.1 -0.8 2.1 -11.1 0.2z"/>
  <path d="M618.1 484.3 c0.8 -0.9 2.7 -3 4.2 -4.7 7.2 -7.8 14 -17.6 18.3 -26.7 1.3 -2.7 2.9 -4.9 3.4 -4.9 1.6 0 1.2 6.7 -0.5 8.4 -0.8 0.8 -1.5 2.2 -1.5 3 0 0.9 -0.7 1.6 -1.5 1.6 -0.9 0 -1.5 0.9 -1.5 2.5 0 1.8 -0.5 2.5 -2 2.5 -1.6 0 -2 0.7 -2 3 0 2 -0.5 3 -1.5 3 -0.8 0 -1.5 0.9 -1.5 2 0 1.6 -0.7 2 -3 2 -2.8 0 -3 0.3 -3 3.5 0 2.4 -0.5 3.5 -1.5 3.5 -0.8 0 -1.5 0.7 -1.5 1.5 0 1 -1 1.5 -3.1 1.5 -2.8 0 -3 -0.2 -1.8 -1.7z"/>
  <path d="M364.1 427.8 c-1.1 -5.7 -3.1 -20 -3.1 -22.4 0 -0.8 0.8 -1.4 1.8 -1.4 1.5 0 2 1.6 3.1 10.3 0.7 5.6 1.5 12.1 1.8 14.5 0.5 3.4 0.3 4.2 -1 4.2 -1.1 0 -1.9 -1.6 -2.6 -5.2z"/>
  <path d="M362.6 377.8 c0.9 -6.6 5.3 -22.9 8.8 -32.6 3 -8 2.8 -10.2 -0.9 -12.2 -1.4 -0.7 -2.5 -1.9 -2.5 -2.7 0 -1.7 -2 -1.6 -4.4 0.2 -2.8 2.1 -3.9 1.8 -3.1 -0.7 0.3 -1.3 0.8 -3 0.9 -3.8 0.1 -0.9 1.1 -2.5 2.1 -3.7 1.1 -1.1 3.1 -3.6 4.5 -5.4 3 -4.2 19 -19.9 20.2 -19.9 0.4 0 0.8 0.7 0.8 1.5 0 1 1 1.5 3 1.5 3.7 0 3.8 1.3 0.4 5.7 -2.3 3 -2.5 6.1 -0.3 4.8 1.6 -1 1 1.6 -1 4.3 -4.2 6.1 -13.1 23.1 -14.2 27.5 -0.6 2.6 -1.5 4.7 -2 4.7 -0.5 0 -0.9 1.1 -0.9 2.4 0 1.3 -0.3 2.6 -0.8 2.8 -1 0.4 -7.2 24.7 -7.2 28.2 0 1.9 -0.5 2.6 -2 2.6 -1.9 0 -2 -0.4 -1.4 -5.2z"/>
  <path d="M385 358.2 c0 -4.3 3 -12.2 4.6 -12.2 0.9 0 1.4 -1.2 1.4 -3.5 0 -1.9 0.5 -3.5 1 -3.5 0.6 0 1 -1.1 1 -2.4 0 -3.7 1 -5.6 3.1 -5.6 1.5 0 1.9 -0.7 1.9 -3.4 0 -1.9 0.7 -4.1 1.5 -5 0.8 -0.8 1.5 -1.9 1.5 -2.5 0 -0.6 0.7 -1.1 1.5 -1.1 0.8 0 1.5 -0.9 1.5 -2 0 -1.1 0.9 -2.5 2 -3.2 1.1 -0.7 2 -1.9 2 -2.6 0 -0.7 3.4 -4.7 7.5 -8.8 7.4 -7.4 7.6 -7.5 12.3 -7.3 2.6 0.1 5.8 -0.1 7.1 -0.6 2.8 -0.9 23.1 1.5 23.1 2.7 0 0.4 2.7 0.8 6.1 0.8 6.5 0 17.2 2.3 22.9 4.9 2.1 1 6.3 1.6 10.5 1.6 27.6 0.1 31.5 0.4 31.5 2.4 0 1.7 -1.2 1.9 -17.7 2.4 -14.5 0.4 -18.8 0.8 -23.3 2.5 -7.4 2.7 -17.8 7.9 -21.8 10.9 -2.5 1.9 -4 2.3 -6.2 1.8 -1.9 -0.4 -3 -0.3 -3 0.4 0 0.6 -0.4 1.1 -1 1.1 -0.5 0 -1 -0.8 -1 -1.8 0 -3.3 -4.2 -6.2 -9.1 -6.2 -2.4 0 -6.4 -0.5 -8.8 -1.1 -9.9 -2.3 -15.1 -2.5 -18.1 -0.9 -4.8 2.5 -6.4 0.1 -3.3 -4.7 3.3 -5 -0.5 -1.7 -6.5 5.6 -3.3 4 -7.8 11 -10.1 15.5 -4.2 8.2 -11.1 25.4 -11.1 27.5 0 0.6 -0.7 1.1 -1.5 1.1 -1 0 -1.5 -1 -1.5 -2.8z"/>
  <path d="M591.3 347.3 c-3.2 -4.9 -5.6 -7.6 -14 -15.9 -7.9 -7.8 -14.9 -12.8 -20 -14 -1.3 -0.4 -2.3 -1 -2.3 -1.5 0 -0.5 -0.6 -0.8 -1.2 -0.7 -0.8 0.2 -1.4 -0.9 -1.6 -2.5 -0.4 -3.7 2.1 -5.6 7.6 -5.7 2.3 0 4.2 -0.4 4.2 -1 0 -1.6 8.6 -1.2 9.9 0.4 0.7 0.8 4.1 1.8 7.7 2.1 6.4 0.7 6.4 0.7 6.4 3.9 0 3 -2.7 6.6 -5 6.6 -0.6 0 -1 1.2 -1 2.6 0 1.8 1.4 3.9 4.4 6.8 8.1 7.5 12.4 13.4 11.8 16.4 -1 5.7 -4.1 6.8 -6.9 2.5z"/>
  <path d="M657.1 337.9 c-1.1 -2.9 -2.1 -5.8 -2.1 -6.5 0 -0.8 -0.4 -1.4 -1 -1.4 -0.5 0 -1 -0.9 -1 -2 0 -1.1 -0.4 -2 -1 -2 -0.5 0 -1 -0.7 -1 -1.5 0 -0.8 -0.4 -1.5 -0.9 -1.5 -0.5 0 -1.5 -1.6 -2.2 -3.5 -0.7 -1.9 -1.6 -3.5 -1.9 -3.5 -0.4 0 -2.7 -3.3 -5.3 -7.2 -2.5 -4 -7.3 -10 -10.6 -13.3 -5.9 -5.7 -6.1 -6.1 -6.1 -11 0 -2.8 -0.6 -5.8 -1.2 -6.7 -1.8 -2.2 -5.8 -3 -5.8 -1.2 0 1.8 -6.1 1.9 -7.8 0.2 -1.8 -1.8 -1.6 -7.8 0.3 -7.8 1 0 1.5 -1 1.5 -3 0 -2.5 0.4 -3 2.4 -3 1.3 0 2.7 -0.7 3 -1.6 0.5 -1.4 2.1 -1.5 11.9 -0.9 8.3 0.6 11.7 1.2 13.2 2.4 4.4 3.8 7.9 4.3 33 5.3 19.5 0.8 26.5 1.4 31.6 2.9 3.6 1 8.2 1.9 10.2 1.9 2 0 4.7 0.4 6.1 1 1.5 0.5 5.4 1.4 8.7 1.9 8.3 1.4 9.3 2.3 8.6 8.7 -0.8 7.5 0.5 8.8 6.7 7.4 4.1 -0.9 5.1 -0.8 6.7 0.6 1.2 1.1 2.6 1.4 4.1 1 7.7 -2.4 8.8 -2.4 8.8 -0.5 0 1 0.9 2.3 2 2.9 1.7 0.9 2 0.8 2 -1 0 -3.1 2.5 -2.4 4.4 1.3 3.1 6.1 7.8 18.2 8.9 23 1.3 5.7 0.2 7.1 -4.9 6.2 -3.9 -0.7 -10.7 -3.9 -12.4 -5.9 -0.7 -0.9 -2.1 -1.6 -3.1 -1.6 -1.1 0 -3.6 -1.1 -5.7 -2.4 -2.1 -1.4 -6.4 -2.8 -10.2 -3.4 -3.6 -0.6 -9.2 -2.4 -12.6 -4.1 -6.8 -3.4 -12 -3.8 -37.9 -2.6 -8.6 0.3 -16.1 0.2 -19.5 -0.5 -3 -0.6 -6.2 -1.2 -7 -1.4 -0.8 -0.1 -2.5 -0.6 -3.7 -1 -3 -1 -5.4 0.5 -8.8 5.3 -3 4.4 -5.9 5.3 -8.1 2.4 -0.7 -1 -1.5 -1.5 -1.8 -1.2 -0.4 0.3 1.2 3.7 3.5 7.5 3.7 6 10.3 19.4 12.2 24.7 0.5 1.3 0.1 1.7 -1.7 1.7 -1.9 0 -2.8 -1 -4.5 -5.1z"/>
  <path d="M323.5 244 c-1.9 -0.7 -6.5 -5.4 -6.5 -6.5 0 -1.2 7.4 -0.4 10.2 1.1 2.4 1.3 4.7 1.4 10.9 0.9 4.3 -0.4 9.6 -0.4 11.8 0 3.5 0.6 4.1 1 4.1 3.1 0 2.4 0 2.4 -14.2 2.3 -7.9 0 -15.2 -0.4 -16.3 -0.9z"/>
 </g>
 <g fill="#3679c9">
  <path d="M367.5 439.8 c-1.4 -3.4 -3.8 -14.6 -5 -23 -0.5 -4.2 -0.4 -4.8 1.2 -4.8 1.9 0 3 4.7 5 20.3 0.3 2 0.9 3.7 1.4 3.7 0.5 0 0.9 1.6 0.9 3.5 0 4.4 -1.7 4.5 -3.5 0.3z"/>
  <path d="M669 380.8 c0 -3.7 -4.4 -25.3 -5.2 -25.6 -1.4 -0.6 -0.9 -7.2 0.5 -7.2 2 0 6.1 15.3 8.2 30.3 0.6 4.3 0.4 4.7 -1.4 4.7 -1.5 0 -2.1 -0.6 -2.1 -2.2z"/>
  <path d="M367 359.5 c0 -0.9 1.6 -5.7 3.5 -10.6 1.9 -5 3.5 -9.7 3.5 -10.4 0 -1.5 6.4 -14 11.6 -22.7 2.5 -4 4 -5.6 5.4 -5.5 1.1 0.1 2 0.7 2 1.5 0 1.2 -3.4 6.8 -5 8.2 -0.3 0.3 -1.4 2.4 -2.4 4.8 -1.1 2.3 -2.5 4.2 -3.3 4.2 -0.7 0 -1.3 0.9 -1.3 2 0 2.4 -2.1 7 -3.2 7 -0.4 0 -0.8 1.6 -0.8 3.5 0 1.9 -0.4 3.5 -1 3.5 -0.5 0 -1 1.1 -1 2.5 0 1.4 -0.4 2.5 -1 2.5 -0.5 0 -1 1.1 -1 2.5 0 1.4 -0.4 2.5 -1 2.5 -0.5 0 -1 1.4 -1 3 0 2.3 -0.4 3 -2 3 -1.1 0 -2 -0.7 -2 -1.5z"/>
  <path d="M389 346.7 c0 -2 0.7 -4.2 1.5 -5.1 0.8 -0.8 1.5 -2.6 1.5 -4 0 -1.6 0.6 -2.6 1.5 -2.6 0.9 0 1.5 -0.9 1.5 -2.4 0 -3.7 1 -5.6 3.1 -5.6 1.5 0 1.9 -0.7 1.9 -3.5 0 -2.4 0.5 -3.5 1.5 -3.5 0.8 0 1.5 -0.9 1.5 -2 0 -1.3 0.7 -2 2 -2 1.5 0 2 -0.7 2 -2.5 0 -1.6 0.6 -2.5 1.5 -2.5 0.8 0 1.5 -0.9 1.5 -2 0 -1.6 0.7 -2 3.1 -2 2.4 0 2.9 0.3 2.2 1.3 -13.1 17 -17 23.4 -21.5 35.1 -2.7 7 -4.8 8.4 -4.8 3.3z"/>
  <path d="M654 330 c0 -1.1 -0.4 -2 -1 -2 -0.5 0 -1 -0.7 -1 -1.5 0 -0.8 -0.4 -1.5 -1 -1.5 -0.5 0 -1 -1.5 -1 -3.4 0 -2.8 -0.4 -3.5 -2.2 -3.8 -1.7 -0.2 -2.4 -1.1 -2.6 -3 -0.2 -1.6 -0.9 -2.8 -1.8 -2.8 -0.8 0 -1.4 -0.7 -1.4 -1.5 0 -0.8 -0.4 -1.5 -1 -1.5 -0.5 0 -1 -0.7 -1 -1.5 0 -0.8 -0.4 -1.5 -1 -1.5 -0.5 0 -1 -0.5 -1 -1.1 0 -0.6 -1.3 -2.2 -3 -3.6 -2.1 -1.7 -3 -3.4 -3 -5.4 0 -2.5 -0.4 -2.9 -2.9 -2.9 -2.3 0 -3.7 -0.9 -5.7 -3.5 -1.5 -2 -7.4 -7 -13.1 -11.1 -8.3 -6.1 -10.3 -8.1 -10.3 -10.1 0 -2.9 -1.2 -4.1 -6.5 -6.8 -2.2 -1.1 -6 -3.1 -8.5 -4.5 -2.5 -1.4 -6.5 -3.2 -9 -3.9 -2.5 -0.7 -5 -1.7 -5.5 -2.1 -2.3 -1.9 -15.7 -6.1 -20.7 -6.6 -2.9 -0.2 -11 -1.2 -18 -2 -13.2 -1.7 -29 -1.5 -41.3 0.5 -7.9 1.3 -143.7 2.4 -141 1.2 1.9 -0.9 1.8 -1 -0.5 -1.1 -1.4 -0.1 -6.9 -0.1 -12.2 0 -7.1 0.1 -10.5 -0.3 -12.7 -1.4 -3.6 -1.9 -4.5 -2 -3.5 -0.4 0.4 0.7 -0.5 0.2 -2.1 -1.2 -4.8 -4.3 -10.5 -10 -10.5 -10.6 0 -1.7 13 -16.4 14.5 -16.4 0.3 0 0.5 1.3 0.5 2.9 0 2.9 0.1 3 3.8 2.5 2 -0.3 4.9 -1 6.3 -1.5 3.6 -1.4 23.9 0.5 28 2.5 4 2 3.9 2 3.9 -0.5 0 -1.6 0.4 -1.9 1.8 -1.4 0.9 0.4 2.4 0.9 3.3 1.2 1.9 0.5 7.9 -2.3 7.9 -3.7 0 -0.6 1.4 -1 3 -1 1.7 0 4.4 -1 6.1 -2.2 3.8 -2.8 16.9 -3.9 19.6 -1.7 0.9 0.8 4.1 1.5 7.2 1.6 3.1 0.1 6.5 0.2 7.6 0.4 1.1 0.1 5.4 -0.4 9.5 -1.1 8.3 -1.4 37.4 -0.7 39.4 0.9 0.6 0.5 5.9 0.9 11.6 0.9 22.9 -0.2 36.4 0.6 39.5 2.4 5.6 3.1 13.9 4.7 27 5.3 17.7 0.9 27.7 2.2 32.7 4.5 2.4 1.1 5.5 2 7 2 1.5 0 2.9 0.4 3.3 1 0.4 0.6 1.5 0.6 3.1 0 5.3 -2 17.3 -0.1 23.3 3.7 1.7 1.1 4.9 1.5 12.2 1.4 8.2 -0.1 11.3 0.3 17.4 2.4 4.2 1.4 8.1 2.5 8.8 2.5 0.7 0 3.5 1 6.3 2.3 6.3 3 11.5 4.7 14.3 4.7 3.8 0 19.5 4.2 20.3 5.4 0.4 0.6 0.8 -0.4 0.8 -2.1 0 -4 2.6 -4.6 3.6 -0.9 0.7 3.1 5 6.1 6.7 4.8 0.7 -0.5 2.2 -1.2 3.5 -1.5 1.8 -0.4 2.2 -0.1 2.2 1.9 0 2.2 0.4 2.4 5.3 2.4 11.8 0.1 19.9 1.8 25.3 5.5 2.9 1.9 5.5 4.3 5.9 5.4 0.3 1.1 1.5 2.3 2.6 2.6 1.8 0.6 2.8 3.5 1.1 3.5 -0.5 0 -1.7 0.8 -2.8 1.8 -1.1 0.9 -2.9 2.2 -4 2.8 -1.3 0.8 -1.8 2.1 -1.7 4.2 0.2 2.2 -0.2 3.2 -1.5 3.7 -0.9 0.3 -2.5 1.2 -3.5 1.9 -1.5 1.2 -1.7 1.8 -0.7 3.6 1.1 2 1.7 2.1 6.4 1.6 4 -0.5 5.6 -0.3 6.5 0.7 1.5 1.9 -0.3 2.6 -8.6 3.4 -6.2 0.6 -6.2 0.6 -8.4 -4 -2.2 -4.5 -2.2 -4.7 -0.4 -6.6 2.3 -2.7 0.7 -4.8 -4.4 -5.6 -2 -0.3 -5.6 -1.1 -8.1 -1.7 -2.5 -0.5 -6.5 -1.2 -9 -1.5 -2.5 -0.2 -7.6 -1.3 -11.3 -2.4 -3.9 -1.2 -9.8 -2 -13.5 -2 -33.4 0 -47.3 -1.7 -51 -6.2 -0.8 -0.9 -3.4 -1.5 -7 -1.7 -3.1 -0.1 -7 -0.3 -8.7 -0.3 -2.4 -0.2 -3.1 0.2 -3.3 2 -0.3 1.9 -0.7 2.1 -2.7 1.3 -1.9 -0.7 -2.3 -0.6 -1.9 0.5 0.7 1.7 6.5 5.5 8.5 5.5 1.8 0 4.3 2.9 4.7 5.5 0.2 1.1 0.8 2.4 1.3 2.9 1.4 1.5 1.1 2.6 -0.6 2.6 -2.8 0 -1.5 2.6 4.1 8 6.3 6.1 15.2 18.9 23.4 33.5 3.1 5.6 3.2 6.5 0.5 6.5 -1.8 0 -2.5 -0.5 -2.5 -2z"/>
  <path d="M581.4 318.5 c0.3 -4.6 -2.2 -7.4 -6.5 -7.5 -1.5 0 -3.2 -0.7 -3.9 -1.5 -1.6 -2 -3.6 -1.9 -4.4 0.1 -0.5 1.2 -1.5 1.4 -4.4 1 -3.9 -0.6 -6.3 0.5 -7.5 3.6 -0.5 1.5 -1 1.5 -5.1 -0.7 -2.4 -1.3 -4.6 -2.2 -4.8 -1.9 -0.3 0.2 -2.7 -0.3 -5.4 -1.1 -3.1 -1 -10.8 -1.7 -20.8 -2.1 -8.8 -0.3 -16.3 -0.7 -16.6 -0.9 -0.4 -0.2 -3.1 0 -6.1 0.5 -4.7 0.8 -6 0.6 -10.4 -1.4 -6.7 -3.1 -17.8 -5.5 -24.3 -5.3 -2.9 0.1 -5.6 -0.3 -6 -0.8 -0.4 -0.6 -4.2 -1.6 -8.5 -2.2 -6.3 -0.9 -8.7 -0.8 -12.8 0.4 -4.1 1.2 -5.3 1.3 -5.9 0.3 -0.6 -0.9 -1.7 -0.6 -4.4 1.5 -3.6 2.7 -3.6 2.7 -3.6 -0.3 0 -2.4 1.2 -4.1 5.6 -8.1 3 -2.8 7 -5.7 8.7 -6.5 5.7 -2.5 16.2 -5.3 16.7 -4.5 0.3 0.4 1.7 1.2 3.2 1.8 2 0.8 2.9 0.7 3.8 -0.5 0.7 -0.7 2.8 -1.4 4.6 -1.4 1.9 0 3.4 -0.4 3.4 -1 0 -1.5 9.7 -1.2 16 0.5 3 0.8 8.7 1.5 12.6 1.5 3.9 0 11.4 0.6 16.6 1.4 5.2 0.8 16.7 1.8 25.4 2.2 8.7 0.4 17.5 1.2 19.4 1.9 2.9 1 3.8 1 4.8 -0.1 2 -2.2 6.9 -1.6 11.5 1.4 4 2.6 13.7 4.7 13.7 3 0 -0.5 1.9 -0.8 4.1 -0.8 4.2 0 4.2 0 3.5 7 -1 11 -6 22.2 -9.6 21.3 -1.2 -0.3 -2 0.2 -2.4 1.4 -0.3 1 -0.4 0 -0.2 -2.2z"/>
  <path d="M382 306.5 c0 -0.3 0.9 -1.5 2 -2.7 2.2 -2.4 2.7 -4.3 0.8 -3.3 -0.7 0.4 0.1 -0.6 1.8 -2.2 5.9 -5.5 9.4 -8.3 10.2 -8.3 0.4 0 2.3 -1.3 4.2 -2.8 4 -3.3 8.2 -5.7 9.3 -5.4 0.4 0.1 0.7 -0.3 0.7 -0.8 0 -1.9 1.6 -1 1.7 0.9 0.1 1.1 -1 2.7 -2.4 3.7 -3.3 2.1 -10.4 9.8 -14.8 16 -2.1 3 -3.5 4.2 -3.5 3.1 0 -2.4 -4.1 -2.2 -6.8 0.3 -2.1 2 -3.2 2.5 -3.2 1.5z"/>
  <path d="M768.8 301.2 c-6.3 -3.8 -7.5 -4.9 -6.7 -6.3 0.7 -1.3 0.5 -1.9 -0.9 -2.1 -0.9 -0.3 0.7 -0.8 3.7 -1.2 5 -0.8 5.7 -0.6 7.3 1.4 1 1.2 1.5 2.7 1.1 3.3 -0.3 0.5 -0.1 0.7 0.4 0.4 1 -0.6 4.3 5.9 4.3 8.3 0 1.6 -1.1 1.2 -9.2 -3.8z"/>
 </g>
 <g fill="#3e83d4">
  <path d="M371.1 347.8 c1.2 -2.9 2.5 -6.7 2.9 -8.4 0.9 -3.9 7 -15.4 8.1 -15.4 1.3 0 1.1 5.5 -0.3 8.5 -0.6 1.4 -1.7 2.5 -2.3 2.5 -0.8 0 -1.5 2.2 -2 5.5 -0.3 3 -1.3 6.1 -2.1 6.9 -0.8 0.8 -1.4 2.4 -1.4 3.5 0 1.6 -0.6 2.1 -2.5 2.1 -2.5 0 -2.5 0 -0.4 -5.2z"/>
  <path d="M647.6 320.4 c-0.3 -0.9 -0.6 -2.7 -0.6 -4 0 -1.7 -0.6 -2.4 -2 -2.4 -1.1 0 -2 -0.7 -2 -1.5 0 -0.8 -0.4 -1.5 -1 -1.5 -0.5 0 -1 -0.7 -1 -1.5 0 -0.8 -0.4 -1.5 -1 -1.5 -0.5 0 -1 -0.7 -1 -1.5 0 -0.8 -0.4 -1.5 -1 -1.5 -0.5 0 -1 -1.6 -1 -3.5 0 -3.2 -0.3 -3.5 -2.8 -3.5 -3.4 0 -7.2 -3.6 -7.2 -6.8 0 -1.6 -0.6 -2.2 -2.3 -2.2 -2.4 0 -6.7 -3.7 -6.7 -5.8 0 -0.7 -0.9 -1.2 -2 -1.2 -1.1 0 -2 -0.7 -2 -1.5 0 -0.8 -0.9 -1.5 -2 -1.5 -1.1 0 -2 -0.4 -2 -1 0 -0.5 -0.7 -1 -1.5 -1 -0.8 0 -1.5 -0.7 -1.5 -1.5 0 -0.8 -0.7 -1.5 -1.5 -1.5 -2.5 0 -5.7 -3.6 -5.3 -5.9 0.3 -1.8 1.5 -1.1 10.8 5.5 13.5 9.8 26.5 23.2 35.1 36.3 3.8 5.7 6.9 10.8 6.9 11.3 0 1.5 -4.8 0.8 -5.4 -0.8z"/>
  <path d="M581 320.5 c0 -0.6 1.1 -2.7 2.5 -4.7 4.6 -6.7 9.1 -21.8 6.5 -21.8 -0.5 0 -1 1.4 -1 3 0 3.8 -2.2 4 -5.2 0.5 -1.6 -1.8 -3.2 -2.5 -5.9 -2.5 -2.6 0 -5.2 -1 -8.1 -2.9 -3.9 -2.7 -6.8 -3.1 -6.8 -1 0 1.3 -5.3 1.1 -8.7 -0.2 -1.5 -0.6 -6.4 -1.3 -10.8 -1.5 -20.9 -1 -24.5 -1.3 -31.5 -2.4 -4.1 -0.7 -11.8 -1.3 -17 -1.5 -5.2 -0.2 -12.3 -1 -15.6 -1.9 -6.9 -1.8 -10.8 -2.1 -10 -0.7 0.7 1.1 -4.9 2.5 -6.3 1.7 -0.5 -0.3 -1.4 0.1 -2.1 0.9 -2.4 2.9 -12.4 1 -13.3 -2.6 -0.3 -1 -0.1 -1.9 0.3 -1.9 0.5 0 3.5 -1.5 6.7 -3.4 3.2 -1.9 11.1 -5.3 17.6 -7.5 10.9 -3.8 11.7 -3.9 11.7 -2.1 0 1.1 0.4 2 0.9 2 0.5 0 0.7 -0.9 0.4 -2 -0.5 -1.9 -0.3 -2 7 -3.5 1.2 -0.2 1.7 0.3 1.7 1.9 0 2 0.8 2.3 7.3 3.4 7.6 1.3 49.7 3.5 50.6 2.7 0.2 -0.3 -1 -0.5 -2.7 -0.5 -4.7 0 -6.2 -0.9 -6.2 -4 0 -2.8 0 -2.8 8.3 -0.3 12.8 3.9 22 7.7 27.2 11.2 3.3 2.2 5.7 3.1 7.8 2.9 4.6 -0.5 7 3.5 7.5 12.1 0.5 8 -2 18.1 -4.3 18.1 -0.9 0 -1.5 1 -1.5 2.6 0 3 -1.9 5.3 -3.9 4.6 -0.7 -0.2 -1.7 0.2 -2.2 0.9 -0.5 0.8 -0.9 0.9 -0.9 0.4z"/>
  <path d="M406.1 315.8 c-0.1 -2.7 0.3 -3.8 1.4 -3.8 0.8 0 1.5 -0.9 1.5 -2 0 -1.3 0.7 -2 2 -2 1.4 0 2 -0.7 2 -2.3 0 -1.4 1.8 -4.1 4.8 -7 3.7 -3.6 5.5 -4.7 8 -4.7 2.9 0 3.2 -0.3 3.2 -2.9 0 -2.5 0.7 -3.2 4.3 -4.8 5.4 -2.5 11.7 -4.6 12.2 -4.1 0.3 0.2 -2.9 2.6 -7 5.3 -7 4.5 -21.9 18.8 -29.2 28 -3.2 4 -3.2 4 -3.2 0.3z"/>
  <path d="M750.3 271.7 c-1.3 -0.5 -2.5 -1.8 -2.8 -2.8 -0.8 -2.3 -8.5 -7.7 -12.7 -8.9 -1.6 -0.5 -7.1 -1.2 -12.2 -1.5 -14.6 -0.8 -18.6 -1.4 -20.9 -3 -1.2 -0.8 -3.4 -1.5 -4.9 -1.5 -1.6 0 -2.8 -0.4 -2.8 -0.8 0 -0.9 -16.6 -5.2 -20.2 -5.2 -2.7 0 -7.9 -1.7 -14.2 -4.7 -2.8 -1.3 -5.5 -2.3 -6.2 -2.3 -0.6 0 -4 -0.9 -7.5 -2.1 -7 -2.3 -15.9 -3.2 -19.1 -2 -2.1 0.8 -8.8 -0.6 -12.3 -2.6 -1.1 -0.6 -4.5 -1.8 -7.6 -2.7 -4.9 -1.5 -6.2 -1.5 -11 -0.2 -4.6 1.2 -5.6 1.2 -7 0 -0.8 -0.8 -2.6 -1.4 -4 -1.4 -1.3 0 -4.3 -0.9 -6.7 -2 -5.1 -2.3 -16 -3.7 -33.2 -4.4 -12.5 -0.5 -20.4 -2.1 -26.5 -5.4 -2.3 -1.3 -6.3 -1.8 -17.5 -2 -20.3 -0.4 -20.1 -0.4 -21.6 0.9 -0.8 0.6 -2.1 0.8 -3.1 0.4 -1 -0.4 -3.1 -0.9 -4.6 -1.1 -1.6 -0.1 -3.4 -0.7 -4 -1.2 -2.1 -1.7 -26.5 -2.4 -34.3 -1 -3.8 0.6 -9.1 1.1 -11.9 1.1 -2.7 -0.1 -7.5 -0.2 -10.6 -0.2 -3.5 0 -6 -0.5 -6.7 -1.4 -1 -1.1 -4.1 -1.4 -10.9 -0.8 -0.6 0.1 -2.5 1.2 -4.1 2.6 -1.7 1.4 -3.7 2.3 -4.5 1.9 -1 -0.3 -1.7 0.3 -2.1 2 -0.5 2 -1.3 2.6 -3.4 2.6 -1.5 0 -3.3 0.5 -4 1.2 -0.9 0.9 -1.2 0.9 -1.2 -0.1 0 -0.8 -0.6 -1.1 -1.5 -0.7 -0.8 0.3 -1.5 0.1 -1.5 -0.5 0 -0.7 1 -0.9 2.5 -0.5 1.8 0.5 2.5 0.2 2.5 -0.9 0 -0.8 0.5 -1.5 1.1 -1.5 0.5 0 0.7 -0.5 0.3 -1.1 -0.3 -0.6 0.3 -2.4 1.5 -4 2.2 -3 2.8 -5.9 1.1 -5.9 -0.5 0 -1 -0.6 -1 -1.2 -0.1 -0.7 -1.6 -3.8 -3.5 -6.8 -4 -6.4 -7.5 -12.7 -7.5 -13.5 0 -0.3 1.4 -0.5 3 -0.5 2.9 0 3 0.2 3 4.5 0 3.8 0.3 4.5 1.9 4.5 1.4 0 2.1 -0.8 2.3 -2.7 0.2 -2.2 1.1 -3.1 3.8 -4 4.4 -1.5 19.5 -1.7 22.1 -0.3 1.5 0.8 1.9 0.7 1.9 -0.5 0 -2.2 2.5 -1.8 4.2 0.6 1.9 3 14.7 5.5 16.4 3.3 0.7 -0.8 3.6 -1.7 6.5 -2.1 3 -0.3 6.1 -1.1 6.9 -1.8 2.6 -2.2 50.6 0.4 65.5 3.5 2.8 0.6 11.3 1.4 19 1.7 9.9 0.4 14.9 1 17 2.2 2.3 1.1 6.6 1.6 17.5 1.8 16.8 0.2 36.5 2.7 40.2 5 0.7 0.4 3.3 1 5.8 1.4 7.7 1.3 10.4 2.1 12.8 4 1.3 1 4.4 2.1 7 2.4 6.5 0.9 14.7 3.3 20.7 6.1 7.8 3.6 17.4 6.1 25.8 6.8 3.2 0.2 7.8 1.4 10.3 2.6 2.4 1.2 7.9 2.6 12.1 3.2 4.9 0.6 8.4 1.5 9.5 2.6 0.9 0.9 2.4 2.3 3.3 3 1.2 1.1 1.3 1.7 0.4 2.8 -0.6 0.7 -1.5 1.1 -2 0.8 -0.5 -0.3 -0.8 -0.2 -0.7 0.3 0.1 0.4 -0.6 2.2 -1.5 4 -2.1 4 -1.8 6.5 1.5 9.7 2.2 2.3 2.7 2.4 3.8 1.1 0.7 -0.8 1.9 -1.5 2.7 -1.5 0.8 0 2.8 -0.7 4.4 -1.6 1.7 -0.8 3.9 -1.7 5 -1.9 1 -0.2 2.8 -1.3 4.1 -2.4 1.2 -1.2 2.5 -2.1 2.9 -2.1 0.4 0 1.4 -0.3 2.3 -0.6 1.2 -0.4 1.6 0 1.6 1.5 0 1.9 0.5 2.1 5.3 2 5.2 -0.1 5.2 -0.1 1.5 -1.1 -2.8 -0.7 -3.8 -1.5 -3.8 -3 0 -1.6 0.6 -1.9 4.2 -1.6 3.6 0.3 4.6 0.9 6.6 3.8 1.2 1.9 2.8 4.2 3.5 5 2.3 2.7 7 11.3 5.8 10.6 -0.7 -0.5 -0.9 -0.1 -0.5 0.8 0.3 0.9 1 1.3 1.5 1 0.8 -0.5 1.3 0.9 1 2.9 0 0.4 0.6 0.7 1.5 0.7 2.6 0 1.2 3.9 -2.1 5.9 -2.3 1.5 -3.5 1.7 -5.2 0.8z"/>
  <path d="M360.1 223.3 c-5 -3.4 -18.2 -4.2 -33.1 -1.9 -5.2 0.8 -9.6 1.3 -9.9 1.1 -0.2 -0.3 0.4 -1.6 1.3 -2.9 0.9 -1.4 1.6 -3.2 1.6 -3.9 0 -1.5 10.5 -12.7 14.4 -15.2 2.3 -1.5 2.7 -1.5 7.3 0.9 2.6 1.3 5.8 3.4 7 4.5 1.2 1.2 2.9 2.1 3.6 2.1 0.8 0 4.3 2.1 7.8 4.7 3.5 2.6 8 5.3 9.9 6 3.1 1.1 3.2 1.2 0.9 1.3 -2 0 -2.5 0.5 -2.5 2.2 0.1 1.9 -0.4 2.3 -3.3 2.3 -1.8 0 -4.1 -0.5 -5 -1.2z"/>
 </g>
 <g fill="#478fe0">
  <path d="M445 512.5 c0 -0.9 -0.9 -1.5 -2.5 -1.5 -1.4 0 -2.5 -0.4 -2.5 -1 0 -0.5 -0.7 -1 -1.5 -1 -0.8 0 -1.5 -0.4 -1.5 -1 0 -0.5 -0.7 -1 -1.5 -1 -0.9 0 -1.5 -0.9 -1.5 -2.5 0 -2.2 -0.4 -2.5 -3.5 -2.5 -3.2 0 -3.5 -0.3 -3.5 -2.9 0 -2.9 0 -2.9 12.4 5.2 6.9 4.5 12.5 8.5 12.5 9 0.1 0.4 -1.5 0.7 -3.4 0.7 -2.4 0 -3.5 -0.5 -3.5 -1.5z"/>
  <path d="M390 451.5 c0 -1.4 -0.4 -2.5 -1 -2.5 -0.5 0 -1 -1.1 -1 -2.5 0 -1.4 -0.4 -2.5 -0.8 -2.5 -1.1 0 -3.2 -6.9 -3.2 -10.3 0 -1.4 -0.4 -2.7 -0.9 -2.9 -1 -0.3 -4.1 -17.6 -4.1 -22.8 0 -2 0.5 -3 1.5 -3 1.4 0 1.6 0.6 3.5 13.7 1.1 7.9 4.9 20.8 8.6 29.2 1.3 2.9 2.4 5.5 2.4 5.7 0 0.2 -1.1 0.4 -2.5 0.4 -2 0 -2.5 -0.5 -2.5 -2.5z"/>
  <path d="M387 351.2 c0 -4 0.9 -6.2 2.6 -6.2 0.9 0 1.4 -1.2 1.4 -3.5 0 -1.9 0.5 -3.5 1 -3.5 0.6 0 1 -1.1 1 -2.4 0 -3.7 1 -5.6 3.1 -5.6 1.4 0 1.9 -0.7 1.9 -2.9 0 -3.9 0.9 -6.1 2.6 -6.1 0.8 0 1.4 -0.9 1.4 -2 0 -1.1 0.7 -2 1.5 -2 0.8 0 1.5 -0.9 1.5 -2 0 -1.1 0.7 -2 1.5 -2 0.8 0 1.5 -0.9 1.5 -2 0 -1.1 0.7 -2 1.5 -2 0.8 0 1.5 -0.9 1.5 -2 0 -2.3 1.8 -3.3 4.9 -2.8 1.7 0.3 0.8 1.7 -5.9 10.5 -7.6 10 -12 17.9 -17.7 31.7 -3.2 7.7 -5.3 9.6 -5.3 4.8z"/>
  <path d="M659.4 343.5 c-0.3 -1.9 -1 -3.5 -1.5 -3.5 -0.5 0 -0.9 -1.1 -0.9 -2.5 0 -1.4 -0.4 -2.5 -0.8 -2.5 -0.5 0 -1.9 -2.4 -3.3 -5.2 -1.3 -2.9 -2.7 -5.4 -3.1 -5.6 -0.5 -0.2 -0.8 -1.5 -0.8 -2.8 0 -1.5 -0.6 -2.4 -1.5 -2.4 -0.8 0 -1.5 -0.7 -1.5 -1.5 0 -0.8 -0.4 -1.5 -1 -1.5 -0.5 0 -1 -0.7 -1 -1.5 0 -0.8 -0.4 -1.5 -1 -1.5 -0.5 0 -1 -0.7 -1 -1.5 0 -0.8 -0.4 -1.5 -1 -1.5 -0.5 0 -1 -0.7 -1 -1.5 0 -0.8 -0.4 -1.5 -1 -1.5 -0.5 0 -1 -0.6 -1 -1.4 0 -0.8 -0.7 -1.6 -1.5 -2 -1 -0.3 -1.5 -1.9 -1.5 -4.2 0 -3.3 0.2 -3.5 1.7 -2.3 2.8 2.4 18.4 26.7 21.5 33.8 1.6 3.6 3.3 7.5 3.8 8.6 0.5 1.1 1.4 3.2 2 4.8 0.9 2.5 0.7 2.7 -1.5 2.7 -2 0 -2.5 -0.6 -3.1 -3.5z"/>
  <path d="M581.1 321.9 c0 -0.9 1.5 -4.3 3.5 -7.5 1.9 -3.3 4.2 -8.5 5.1 -11.6 1 -3.7 2.2 -5.8 3.1 -5.8 1.2 0 1.4 1 0.9 4.9 -0.6 5.4 -4.4 15.1 -5.8 15.1 -0.5 0 -0.9 0.7 -0.9 1.5 0 1.1 -0.7 1.4 -2.4 0.9 -2 -0.5 -2.5 -0.1 -2.9 1.8 -0.2 1.2 -0.5 1.6 -0.6 0.7z"/>
  <path d="M736.2 291.4 c-1.3 -2.5 -2.2 -4.7 -2 -4.9 0.2 -0.1 2.6 -1.8 5.5 -3.8 4.2 -2.9 5.2 -3.3 5.7 -2.1 1 2.6 0.7 3.4 -1.4 3.4 -1.1 0 -2 0.7 -2 1.5 0 0.8 -0.7 1.5 -1.5 1.5 -1.2 0 -1.3 0.4 -0.3 2.5 0.6 1.4 1.4 2.5 1.7 2.5 0.3 -0.1 2.5 -0.5 4.8 -0.9 3.5 -0.7 4.5 -0.5 5.8 0.9 1.5 1.7 1.3 1.8 -3.7 2.5 -2.9 0.3 -6.4 0.8 -7.8 1.1 -2.2 0.4 -2.9 -0.1 -4.8 -4.2z"/>
  <path d="M581 285.1 c0 -0.5 -1.5 -1.1 -3.2 -1.4 -1.8 -0.2 -5.8 -1.4 -8.8 -2.6 -3 -1.1 -7.3 -2.1 -9.5 -2.1 -2.2 0 -5.3 -0.7 -6.8 -1.5 -1.6 -0.8 -4.5 -1.4 -6.5 -1.4 -9 0 -41.3 -2.1 -46.7 -3.1 -4.3 -0.8 -8.6 -0.8 -15 -0.1 -4.9 0.6 -10.1 1.1 -11.5 1 -2.3 0 -2.1 -0.2 1.3 -2 2.1 -1.1 3.5 -2.4 3.2 -2.8 -0.3 -0.5 0.5 -0.7 1.7 -0.3 1.4 0.3 1.9 0.1 1.4 -0.6 -0.6 -1.1 5.5 -2.9 8.1 -2.4 0.7 0.2 2.2 -0.2 3.3 -0.8 1.8 -1 36.6 -1.4 44.5 -0.5 1.7 0.2 3.9 0.4 5.1 0.4 1.2 0.1 3.1 1 4.3 2 1.3 1.1 2.8 1.8 3.5 1.5 0.6 -0.2 3.1 0.2 5.4 1 2.3 0.8 4.2 1.3 4.2 1 0 -0.3 0.7 0.2 1.6 1 1.3 1.4 2.8 1.8 5 1.5 0.4 0 1 0.3 1.3 0.8 0.3 0.5 2.6 1.7 5.1 2.7 2.5 1 5.7 3.1 7.3 4.7 2.5 2.8 3.5 4.9 2.2 4.9 -0.3 0 -0.5 -0.4 -0.5 -0.9z"/>
  <path d="M616.2 283.8 c-0.7 -0.7 -1.2 -1.8 -1.2 -2.5 0 -0.7 -0.9 -1.3 -2 -1.3 -1.1 0 -2 -0.4 -2 -1 0 -0.5 -0.7 -1 -1.5 -1 -0.8 0 -1.5 -0.7 -1.5 -1.5 0 -0.8 -0.9 -1.5 -2 -1.5 -1.1 0 -2 -0.4 -2 -1 0 -0.5 -0.7 -1 -1.5 -1 -1.5 0 -3.2 -4.6 -2.2 -5.7 0.7 -0.6 19.3 12.5 22.1 15.6 1.9 2.1 1.9 2.1 -1.5 2.1 -1.9 0 -4 -0.5 -4.7 -1.2z"/>
  <path d="M716.4 251.1 c0.4 -0.5 0.1 -1.1 -0.4 -1.3 -1.7 -0.5 16.2 -9.1 19 -9.1 6.6 0.1 10.2 1.6 9.3 3.8 -0.6 1.8 1.5 4.7 2.9 3.9 0.6 -0.4 0.5 0.3 -0.1 1.5 -1.4 2.5 -2.6 2.6 -6.5 0.6 -3.5 -1.9 -8.4 -1.9 -16.1 0 -7.1 1.7 -8.8 1.8 -8.1 0.6z"/>
  <path d="M703 236.1 c-1.4 -0.9 -2.9 -2.1 -3.5 -2.8 -0.5 -0.7 -4.5 -1.6 -8.7 -2.2 -4.3 -0.5 -9.9 -1.9 -12.4 -3.2 -2.9 -1.4 -6.8 -2.3 -10.3 -2.4 -3.1 0 -7.3 -0.7 -9.3 -1.3 -2.1 -0.7 -5.5 -1.7 -7.5 -2.3 -2.1 -0.5 -6 -2.1 -8.8 -3.3 -5.8 -2.7 -16.5 -6 -17.1 -5.3 -0.8 0.7 -9.6 -2.1 -11.3 -3.7 -1.6 -1.3 -3.7 -2 -12.1 -3.6 -4.7 -0.9 -11.4 -2.5 -16.6 -4.1 -1.7 -0.5 -4.9 -0.9 -7.2 -0.9 -2.2 0 -5.1 -0.4 -6.4 -0.9 -1.3 -0.5 -4.7 -0.5 -7.8 0 -6.3 1 -22 -0.6 -26.2 -2.7 -1.6 -0.8 -5.7 -1.3 -10.1 -1.3 -7.9 0.1 -13.7 -0.4 -28.7 -2.6 -20.5 -3 -30 -3.8 -38.1 -3.2 -4.6 0.4 -10.2 0.2 -12.4 -0.3 -3.1 -0.7 -4.3 -0.6 -5.6 0.6 -0.9 0.8 -4.1 1.7 -7 1.9 -2.9 0.2 -5.5 0.8 -5.7 1.5 -0.7 1.9 -5 3 -7.8 2 -1.9 -0.8 -3.1 -0.7 -4.1 0.2 -1.2 1 -1.8 0.9 -2.9 -0.6 -1.3 -1.8 -1.4 -1.8 -3.2 0.4 -1.6 1.9 -2.2 2.1 -4 1.1 -2.7 -1.4 -2.8 -2.6 -0.4 -4.1 1.4 -0.9 1.2 -1 -1.3 -0.8 -1.6 0.1 -4 -0.3 -5.2 -1 -2.8 -1.5 -11.7 -1.5 -16.3 0.1 -2.9 1 -3.5 1.7 -3.5 4 0 1.5 -0.6 3.2 -1.4 3.6 -2.7 1.7 -9 -3.6 -9.1 -7.7 0 -1.3 -0.4 -2.1 -0.8 -1.8 -1 0.6 -5.2 -7.7 -5.2 -10.3 0 -2.1 5.3 -6.5 13 -10.8 10.3 -5.8 10.5 -5.7 20.6 6.2 3.2 3.9 7.1 8.4 8.6 10 1.6 1.7 2.6 3.7 2.2 4.5 -0.3 0.8 -0.2 1.1 0.2 0.8 0.3 -0.4 1.5 0.3 2.6 1.5 1.1 1.2 1.7 1.6 1.3 0.9 -0.4 -0.8 0.2 -1.2 1.8 -1.2 3.8 0 6.8 -4.4 5.4 -8 -0.9 -2.4 -6.7 -27.8 -6.7 -29.3 0 -1.4 3.1 -4.7 4.3 -4.7 0.4 0 0.7 0.7 0.7 1.5 0 0.8 0.4 1.5 0.9 1.5 0.4 0 0.6 -1.1 0.4 -2.4 -0.5 -2.2 0 -2.6 3.8 -3.7 5.2 -1.4 14.1 -4.3 18.6 -6.1 2.9 -1.1 3.5 -1 5.8 1.2 3.5 3.3 3.1 4.3 -1.5 3.7 -2.2 -0.3 -4 -0.1 -4 0.4 0 0.5 -0.7 0.9 -1.5 0.9 -0.8 0 -1.5 0.5 -1.5 1 0 0.6 1.3 1 3 1 1.6 0 4.8 1.3 7.2 2.9 2.3 1.6 4.7 2.7 5.3 2.5 0.6 -0.3 2.7 2.3 4.6 5.7 5.1 9.1 6.4 10.2 11.1 9.6 4.5 -0.6 7 -3.2 6.3 -6.3 -0.3 -1.3 0.1 -2.4 0.9 -2.7 0.7 -0.3 1.6 -1.7 2 -3.2 0.4 -1.5 1.8 -3.8 3.1 -5.3 2.1 -2.3 3.3 -2.6 10.9 -3 8.6 -0.5 8.6 -0.5 12.9 3.5 2.4 2.2 4.8 4.2 5.3 4.4 0.5 0.2 1.6 1.8 2.5 3.4 1.3 2.7 2 3 5.8 2.9 2.4 0 4.6 -0.5 4.9 -1 1.6 -2.3 7.2 -5.4 9.9 -5.4 1.5 0 4.1 -0.7 5.7 -1.5 5.5 -2.9 18.6 -1 18.6 2.8 0 0.6 2 2.5 4.5 4 2.9 1.8 4.5 3.6 4.5 4.9 0 5.4 5 7.6 9.8 4.2 1.3 -0.9 2.5 -1.4 2.8 -1.1 0.3 0.2 1.8 -0.8 3.4 -2.4 1.6 -1.6 3.5 -2.9 4.3 -2.9 0.8 0 2 -0.7 2.7 -1.5 2 -2.5 15 -1.2 15 1.5 0 0.4 1.3 1.3 3 2 4.4 1.8 9.4 9.7 8.4 13.5 -0.9 3.6 1.2 6.5 4.8 6.5 2.4 0 4.2 -1.2 8.4 -5.5 6.8 -7.2 10.9 -8.9 18.9 -8 6.1 0.6 6.1 0.6 5.7 -3 -0.4 -3.7 -0.4 -3.7 2.8 -1.8 10.5 5.9 13.2 8.7 12.3 12.4 -0.7 2.5 -3.3 2.5 -3.3 0 0 -1 -0.9 -2.1 -2.1 -2.4 -1.5 -0.4 -1.9 -0.2 -1.5 1 0.3 0.8 0.6 2.6 0.6 3.9 0 1.7 0.6 2.4 2 2.4 1.8 0 1.8 0.1 0.2 3 -0.9 1.6 -2 3 -2.4 3 -0.5 0 -0.8 0.7 -0.8 1.5 0 0.8 -1.8 4.3 -4 7.7 -4.5 7.1 -4.9 9.9 -2 12.8 3.7 3.7 6.6 3.6 12.8 -0.6 3.1 -2.2 6.2 -4.1 6.7 -4.3 0.6 -0.2 2.6 -1.6 4.5 -3.1 1.9 -1.5 5.6 -3.9 8.3 -5.4 4.6 -2.7 4.7 -2.7 4.7 -0.7 0 1.2 0.5 2.1 1 2.1 0.6 0 1 -0.9 1 -2 0 -1.3 0.7 -2 1.8 -2 2.4 0 23.2 21.3 23.2 23.7 0 1.1 -3 4.8 -6.7 8.4 -9.5 9 -9.4 8.9 -12.3 7z"/>
  <path d="M326 212.1 c1.6 -3 1.2 -3.3 -1.7 -1.5 -2.8 1.6 -2.8 1.6 -0.3 -0.4 1.3 -1.1 2.7 -2 3 -2 1.4 0.3 4.2 -1.7 5.2 -3.6 1 -1.9 1 -2 -0.5 -0.7 -1 0.7 -1.7 0.9 -1.7 0.3 0 -0.6 1.5 -2 3.4 -3.1 2.9 -1.8 3.8 -2 6 -1 1.9 0.9 2.3 1.6 1.7 2.8 -0.5 0.9 -0.6 2.2 -0.3 3 0.3 0.8 0 1.1 -0.6 0.7 -1.8 -1.1 -7.6 1.9 -9.5 4.8 -2.1 3.1 -6.4 3.8 -4.7 0.7z"/>
  <path d="M602.3 148 c-1 -1.1 -2.5 -2 -3.5 -2 -2.5 0 -2.2 -2.7 0.5 -4.4 2 -1.4 2.8 -1.3 8.7 0.8 9.4 3.4 9.5 7.6 0.2 7.6 -3 0 -4.7 -0.6 -5.9 -2z"/>
 </g>
 <g fill="#539ded">
  <path d="M492 549 c-12.7 -2.1 -14.1 -2.4 -25.5 -6.2 -16.5 -5.6 -32.2 -14.4 -47.4 -26.8 -28.2 -22.8 -49.1 -58.1 -55.1 -93.2 -2.5 -14.6 -2.6 -17.8 -0.2 -17.8 1.6 0 2 1.4 3 10.1 1.7 14.6 6.9 31.5 13.8 45 1.9 3.6 3.4 7.1 3.4 7.7 0 0.7 0.3 1.2 0.8 1.2 0.4 0 1.9 2.1 3.2 4.8 1.4 2.6 3.1 5.1 3.8 5.5 0.6 0.4 1.2 1.2 1.2 1.7 0 0.5 1.1 2.1 2.5 3.6 1.4 1.5 2.5 3.3 2.5 3.9 0 0.7 0.7 1.5 1.5 1.9 0.9 0.3 1.5 1.9 1.5 4.1 0 3.2 0.3 3.5 2.8 3.5 2 0 4.2 1.4 8 5.3 2.9 2.9 5.2 6 5.2 7 0 1.1 0.8 1.7 2.5 1.7 1.4 0 2.5 0.5 2.5 1 0 0.6 0.7 1 1.5 1 0.8 0 2 0.9 2.7 2 0.7 1.1 1.8 2 2.5 2 0.7 0 1.8 0.9 2.5 2 0.7 1.1 1.8 2 2.5 2 0.7 0 1.3 0.7 1.3 1.5 0 0.9 0.9 1.5 2.5 1.5 1.6 0 2.5 0.6 2.5 1.5 0 0.8 0.9 1.5 2 1.5 1.1 0 6 2 10.8 4.4 13.4 6.7 25.1 10.4 41.2 13.1 4.7 0.8 10.2 1.5 12.3 1.5 3 0 3.7 0.4 3.7 2 0 2.5 -3 2.5 -18 0z"/>
  <path d="M523 549.1 c0 -1.6 0.6 -2.1 2.8 -2.1 8.4 0 46.2 -9.4 48.2 -12 0.3 -0.3 4.3 -2.4 9 -4.5 4.7 -2.2 8.7 -4.2 9 -4.5 1.1 -1.2 9 -6 9.9 -6 0.5 0 1.1 -0.7 1.5 -1.5 0.3 -0.8 1.2 -1.5 2.1 -1.5 0.8 0 1.5 -0.4 1.5 -1 0 -0.5 0.9 -1 2 -1 1.1 0 2 -0.6 2 -1.3 0 -1.9 3.3 -4.7 5.3 -4.7 0.9 0 1.7 -0.6 1.7 -1.3 0 -2.2 10.4 -11.7 12.8 -11.7 1.8 0 2.2 -0.6 2.2 -3 0 -1.9 0.7 -3.4 2 -4.2 1.1 -0.7 2 -1.9 2 -2.6 0 -0.7 0.7 -1.5 1.5 -1.8 0.8 -0.4 1.5 -1 1.5 -1.4 0 -0.7 8.4 -13.6 10.8 -16.5 1.8 -2.2 11.2 -24.6 13.6 -32.3 1.4 -4.6 3.1 -12.5 3.8 -17.7 1 -8.1 1.4 -9.5 3 -9.5 2.3 0 2.3 2.6 0.3 14.6 -8 46.5 -42.4 91.2 -86.8 112.7 -18.8 9.2 -35.4 14 -55.4 16.2 -5.9 0.7 -6.3 0.6 -6.3 -1.4z"/>
  <path d="M527 529.7 c0 -1.1 1.3 -1.8 3.8 -2.2 24.5 -4.1 40.5 -9.5 58.2 -19.9 11.7 -6.8 16 -10.2 27.2 -21.3 21.2 -21.1 31 -40 36.9 -71.5 0.7 -3.9 1.5 -5.8 2.5 -5.8 1.7 0 1.8 3 0.4 12 -1.9 11.8 -9.9 35 -12 35 -0.4 0 -1 1.3 -1.3 2.9 -0.3 1.6 -1.2 3.5 -1.9 4.2 -0.7 0.8 -1.9 2.6 -2.5 4.2 -0.7 1.5 -1.7 2.7 -2.3 2.7 -0.5 0 -1 0.7 -1 1.5 0 0.9 -0.6 1.8 -1.4 2.1 -0.8 0.3 -1.6 1.4 -1.9 2.5 -0.3 1.1 -1.4 1.9 -2.6 1.9 -1.5 0 -2.1 0.6 -2.1 2.3 0 3 -13.8 16.7 -16.8 16.7 -1.5 0 -2.2 0.6 -2.2 2 0 1.3 -0.7 2 -2 2 -1.1 0 -2 0.7 -2 1.5 0 0.8 -0.9 1.5 -2 1.5 -1.1 0 -2 0.6 -2 1.4 0 0.8 -1 1.8 -2.2 2.2 -1.2 0.3 -2.8 1.3 -3.6 2 -0.7 0.8 -2 1.4 -2.8 1.4 -0.8 0 -1.4 0.4 -1.4 0.8 0 1.2 -10.5 6.2 -12.9 6.2 -1.2 0 -2.1 0.4 -2.1 0.9 0 2.4 -28.3 10.5 -40.2 11.6 -6.7 0.6 -7.8 0.5 -7.8 -0.8z"/>
  <path d="M486 528.8 c-17.4 -4.7 -22 -6.2 -22 -6.9 0 -0.5 -1 -0.9 -2.2 -0.9 -2.5 0 -15.8 -5.9 -15.8 -7 0 -0.4 -1.1 -1.1 -2.5 -1.4 -1.4 -0.4 -2.5 -1.1 -2.5 -1.6 0 -0.6 -0.7 -1 -1.5 -1 -0.8 0 -1.5 -0.4 -1.5 -1 0 -0.5 -0.7 -1 -1.5 -1 -0.8 0 -1.5 -0.4 -1.5 -1 0 -0.5 -0.7 -1 -1.5 -1 -0.9 0 -1.8 -0.7 -2.1 -1.5 -0.4 -0.8 -1.2 -1.5 -2 -1.5 -0.8 0 -1.4 -0.7 -1.4 -1.5 0 -0.8 -0.8 -1.5 -1.7 -1.5 -2.2 0 -14.3 -12 -14.3 -14.1 0 -0.9 -0.9 -1.9 -2.1 -2.2 -1.1 -0.3 -2.3 -1.5 -2.6 -2.6 -0.3 -1.2 -0.9 -2.1 -1.4 -2.1 -0.5 0 -0.9 -0.6 -0.9 -1.4 0 -0.8 -0.7 -1.6 -1.5 -2 -0.8 -0.3 -1.5 -1.2 -1.5 -2.1 0 -0.8 -0.5 -1.5 -1 -1.5 -0.6 0 -1.6 -1.2 -2.3 -2.7 -0.6 -1.6 -1.4 -3 -1.8 -3.3 -0.4 -0.3 -2.5 -4.1 -4.7 -8.5 -9 -17.8 -16.6 -49.5 -11.8 -49.5 1.5 0 1.9 1.4 3.6 12.2 2.3 15.3 11.1 36 21.7 51 20 28.5 46.8 46.2 81.6 53.7 5.3 1.2 9.9 2.1 10.2 2.1 0.3 0 0.5 0.7 0.5 1.5 0 1.7 -6.2 1.9 -12 0.3z"/>
  <path d="M378.4 391.3 c1.3 -20.3 3.8 -31.6 11.9 -52.4 3.3 -8.4 9.6 -19.9 11.3 -20.6 0.8 -0.3 1.4 -1 1.4 -1.5 0 -1.8 7.1 -10.8 8.6 -10.8 0.8 0 1.4 -0.8 1.4 -1.9 0 -1.9 15.1 -17.1 17.1 -17.1 0.6 0 2.5 -0.6 4.2 -1.4 1.8 -0.8 4.1 -1.6 5.2 -1.9 1.1 -0.3 2.9 -0.8 4 -1.2 1.1 -0.4 -1.4 1.6 -5.5 4.4 -18.7 13 -36 34.8 -44.6 56.1 -7.3 18.2 -9.9 29.5 -11 47.3 -0.6 10.8 -0.9 11.7 -2.7 11.7 -1.9 0 -1.9 -0.5 -1.3 -10.7z"/>
  <path d="M362 390.3 c0 -5 2.7 -21.4 4.6 -28.3 6.1 -21.8 20.6 -51.4 25.3 -51.7 3 -0.2 2.6 2 -1.4 8.2 -4.6 7.2 -12.5 22.8 -12.5 24.7 0 0.9 -1.3 4.4 -2.9 7.9 -3.6 8 -7.9 25.3 -8.8 35.3 -0.5 6.5 -0.9 7.6 -2.4 7.6 -1.5 0 -1.9 -0.8 -1.9 -3.7z"/>
  <path d="M668.5 382.3 c-1.9 -21.1 -10.8 -45.2 -24.6 -66.3 -10.4 -16 -21 -27 -37.8 -39.3 -5.1 -3.8 -6.5 -5.4 -6.3 -7 0.2 -1.2 0.5 -2.3 0.6 -2.4 0.2 -0.2 4.2 2.4 8.9 5.7 34.8 24.3 59.3 66.9 63.3 110 0.6 6.6 0.6 7 -1.3 7 -1.8 0 -2.1 -0.9 -2.8 -7.7z"/>
  <path d="M626 379.5 c-6.9 -0.7 -11.5 -1.3 -10.2 -1.4 1.3 0 2.2 -0.7 2.2 -1.7 0 -1.3 0.9 -1.5 5.8 -1 3.1 0.3 9.2 0.8 13.5 1.2 6.6 0.5 7.7 0.9 7.7 2.5 0 2.2 -0.1 2.2 -19 0.4z"/>
  <path d="M584.4 319.6 c-2.1 -1 -2.1 -1 0.8 -5.5 6.9 -11 7.6 -23.4 1.7 -29.7 -2 -2.2 -2 -2.2 0.6 -2.8 3.3 -0.8 3.9 -0.4 5.9 3.8 3.6 7.5 1.2 23.5 -4.8 32.1 -1.7 2.5 -2.5 2.9 -4.2 2.1z"/>
  <path d="M736.7 291.6 c-0.9 -2 -1.7 -4.1 -1.7 -4.7 0 -1.3 9.1 -7 10.1 -6.3 1.9 1.2 0.8 4.4 -2.1 5.9 -2 1 -2.7 2 -2.3 3.1 0.5 1.2 1.5 1.4 5.3 0.9 3.6 -0.5 4.9 -0.3 6 1 0.7 0.8 1.1 1.8 0.8 2 -0.2 0.2 -3.5 0.7 -7.4 1.1 -6.9 0.6 -6.9 0.6 -8.7 -3z"/>
  <path d="M701.1 206.8 c-1.9 -1.2 -5.2 -2.2 -7.7 -2.2 -2.8 -0.1 -4.4 -0.6 -4.4 -1.3 0 -0.7 -0.6 -1.3 -1.2 -1.3 -0.7 0 0.5 -1.2 2.7 -2.5 4.6 -2.8 9 -3.2 9.9 -0.9 0.3 0.8 1.1 1.2 1.6 0.9 0.6 -0.4 0.9 -0.2 0.8 0.3 -0.2 0.6 0 0.9 0.3 0.9 0.4 -0.1 1.6 0.6 2.7 1.6 1.7 1.6 1.9 2.3 1 4.3 -1.3 2.8 -1.3 2.8 -5.7 0.2z"/>
  <path d="M661.9 188.3 c-0.3 -6 -0.9 -9.7 -1.6 -10.3 -1.4 -1.2 -7.3 -2 -7.3 -1 0 1.5 -2.1 1.2 -4 -0.5 -2.3 -2.1 -6.2 -0.6 -11.3 4.5 -4.3 4.4 -6.7 5.1 -6.7 2 0 -1.1 0.5 -2 1 -2 0.6 0 1 -0.7 1 -1.5 0 -2.3 14.7 -16.5 17.1 -16.5 2.2 0 7.6 3.5 9.7 6.3 0.7 0.9 2 1.7 2.8 1.7 0.8 0 1.4 0.7 1.4 1.6 0 1 0.5 1.4 1.5 1 2.2 -0.8 5.5 2.4 5.5 5.4 0 3.5 -4.1 9.4 -6.7 9.8 -1.3 0.2 -2.3 0 -2.4 -0.5z"/>
  <path d="M615.2 178.8 c-0.7 -0.7 -1.2 -1.6 -1.2 -2 0 -1.9 -4.4 -6.7 -7.1 -7.9 -1.6 -0.6 -2.9 -1.5 -2.9 -1.9 0 -0.5 -1.6 -1.4 -3.6 -2 -2.9 -1 -3.8 -0.9 -5.2 0.2 -0.9 0.8 -2.9 1.9 -4.4 2.6 -1.5 0.6 -3.4 2.3 -4.4 3.7 -1.8 2.7 -4.3 3.2 -7.3 1.3 -1.7 -1 -1.6 -1.3 1.3 -3.9 1.8 -1.5 4.5 -5.2 6 -8.1 2.4 -4.7 5.5 -9.5 11.3 -17.7 1 -1.5 1.8 -2 2.1 -1.3 0.2 0.7 1.1 1.2 2.1 1.2 0.9 0 2.4 0.9 3.4 2 1.8 2.2 3.4 2.5 5.6 1.1 1.1 -0.7 1 -1.1 -0.5 -2.1 -1.4 -0.8 -1.5 -1 -0.3 -0.6 1 0.2 3.6 1 5.9 1.7 2.2 0.7 5.1 2.5 6.4 4 2.3 2.7 2.3 2.7 0.1 13.5 -1.2 6 -2.5 11.8 -2.9 12.9 -0.4 1.1 -1 2.6 -1.2 3.3 -0.4 1.5 -1.7 1.5 -3.2 0z"/>
  <path d="M567 169 c0 -0.5 -2.2 -2.5 -5 -4.2 -2.7 -1.8 -5 -3.9 -5 -4.5 0 -1.5 -5.1 -4.3 -7.8 -4.3 -1.1 0 -3.3 0.7 -4.8 1.5 -1.6 0.8 -4.1 1.5 -5.6 1.5 -1.5 0 -4.8 1.3 -7.5 2.9 -6 3.6 -11.6 5 -10.7 2.7 0.3 -0.9 1.7 -1.9 2.9 -2.2 2.5 -0.6 2.6 -1 6.1 -16.9 0.9 -3.8 2.5 -9 3.7 -11.5 2.1 -4.3 2.4 -4.5 7.1 -4.8 8.3 -0.5 24.2 1.5 27.1 3.4 2.7 1.8 2.7 1.8 2.4 19.6 -0.3 13.4 -0.7 17.8 -1.6 17.8 -0.7 0 -1.3 -0.4 -1.3 -1z"/>
  <path d="M416 163.8 c-0.1 -1.6 -0.3 -3.1 -0.5 -3.5 -0.1 -0.5 -0.5 -2 -0.9 -3.5 -0.5 -1.8 -0.3 -3.4 0.9 -5.2 2.1 -3.2 9 -6.5 13.2 -6.4 1.7 0.1 3.9 -0.6 4.8 -1.6 1.9 -1.9 2.9 -2.1 1.9 -0.4 -0.5 0.8 -0.2 0.9 1 0.5 1 -0.4 2.2 -0.7 2.7 -0.7 0.6 0 0.8 -0.4 0.5 -0.9 -0.6 -0.9 3.7 -3.1 6.2 -3.1 1.5 0 1.5 0.2 0.2 1 -1 0.7 -1.1 1 -0.2 1.1 2.1 0.3 2.7 0.4 3.9 1.2 1.8 1.1 8.4 13.7 7.8 14.8 -1.2 1.8 -4.6 0.9 -9.3 -2.5 -2.7 -1.8 -6.6 -3.6 -8.8 -3.9 -8.3 -1.1 -20.4 4.9 -20.4 10.2 0 1.2 -0.4 2.1 -0.9 2.1 -0.5 0 -1.2 0.8 -1.4 1.8 -0.3 1.1 -0.6 0.8 -0.7 -1z"/>
  <path d="M478.7 163.2 c-1.2 -1.3 -1.4 -3.6 -1.1 -10.7 0.2 -4.9 0.3 -11.5 0.4 -14.6 0 -7.1 0.7 -7.5 17 -8.9 10.5 -0.9 12.6 -0.8 13.5 0.4 0.6 0.7 2.1 7.6 3.4 15.2 1.3 7.7 2.9 14.9 3.7 16.2 1.8 2.7 0.4 2.9 -2.1 0.2 -1 -1.1 -2.4 -2 -3.2 -2 -0.7 0 -3.4 -1.9 -5.8 -4.1 -4.4 -4.1 -4.6 -4.2 -10.2 -3.6 -6.4 0.7 -9.2 2.9 -11.2 9 -1.5 4.5 -2.4 5.1 -4.4 2.9z"/>
 </g>
 <g fill="#9bebff">
  <path d="M505 550.4 c-1.4 -0.2 -6.3 -0.9 -11 -1.5 -17.1 -2.2 -30.5 -6.6 -48 -15.5 -33.8 -17.3 -62 -49.6 -74.8 -85.4 -4.7 -13.3 -6 -18.5 -7.8 -33 -1.5 -11.6 -1.6 -15.3 -0.6 -26.3 1.3 -14.7 5.2 -31.4 9.3 -40.6 1.6 -3.5 2.9 -7 2.9 -7.9 0 -3 14.3 -29.2 16 -29.2 0.4 0 1.8 -0.9 3.1 -2 10.5 -8.9 18 -14 20.2 -13.6 0.5 0 1.3 -0.7 1.8 -1.7 1.3 -2.3 5.8 -4.5 12.7 -6.3 3.1 -0.8 6.1 -1.8 6.6 -2.3 1.3 -1 7.1 -2.1 5.9 -1.1 -0.4 0.3 -3.7 2.7 -7.3 5.2 -10.9 7.6 -26.9 26.1 -34.8 40.1 -6.2 11.1 -13.3 31.5 -15.7 45.2 -2.2 12.8 -2.2 33.2 0 45.1 6.3 34.4 27.5 66.8 56 85.7 12.5 8.2 19.8 11.7 33.9 16.1 18.5 5.7 21.3 6.1 44.1 6 20.4 0 21.3 -0.1 32 -3.1 23.8 -6.8 38.4 -13.9 55 -26.8 24.2 -18.8 41 -45 47.5 -74.1 2.9 -12.7 3.3 -41.1 0.6 -41.9 -0.6 -0.2 -7.2 -0.8 -14.6 -1.5 -21.5 -1.8 -19.7 -1.1 -21 -7.8 -0.6 -3.1 -1.8 -7 -2.5 -8.7 -0.7 -1.6 -1.6 -4.3 -2 -6 -0.9 -3.9 -5.4 -13.5 -6.5 -13.5 -0.4 0 -1.6 -1.7 -2.5 -3.7 -1 -2.1 -6 -7.9 -11 -13 -9.2 -9.2 -9.2 -9.2 -7 -12.5 6.9 -10.2 8.2 -22.6 3.1 -29.3 -1.5 -1.9 -2.2 -3.5 -1.6 -3.5 0.6 0 3.7 -2.5 6.9 -5.5 3.2 -3 6 -5.2 6.4 -4.9 0.3 0.3 0.3 -0.3 0 -1.5 -0.3 -1.2 -0.2 -2.1 0.2 -2.1 2.2 0 18.3 12.8 27.6 22 33.1 32.6 49.7 81.5 43.4 127.6 -2.1 15 -6.1 27.6 -13.6 42.9 -8.1 16.5 -17.1 28.8 -31.9 43.5 -23.9 23.9 -50.3 37.8 -83.5 44.1 -10.3 1.9 -31.9 3.3 -37.5 2.3z"/>
  <path d="M737.1 291.2 c-2.2 -4.4 -2.1 -4.6 4.1 -8.5 3.3 -2.1 4.8 -2.2 4.8 -0.3 0 0.7 1.6 3.4 3.5 5.9 3.5 4.5 3.5 4.5 -0.8 5.2 -2.3 0.3 -5.4 0.8 -6.9 1.1 -2.3 0.5 -3 0 -4.7 -3.4z"/>
 </g>
</svg>