<svg width="192" height="192" viewBox="0 0 192 192" fill="none" xmlns="http://www.w3.org/2000/svg">
<path d="M10.6667 42.3333C13.4956 42.3333 16.2087 41.2095 18.2091 39.2091C20.2095 37.2087 21.3333 34.4956 21.3333 31.6667C21.3333 28.8377 20.2095 26.1246 18.2091 24.1242C16.2087 22.1238 13.4956 21 10.6667 21C7.83769 21 5.12458 22.1238 3.12419 24.1242C1.12381 26.1246 0 28.8377 0 31.6667C0 34.4956 1.12381 37.2087 3.12419 39.2091C5.12458 41.2095 7.83769 42.3333 10.6667 42.3333ZM10.6667 106.333C13.4956 106.333 16.2087 105.21 18.2091 103.209C20.2095 101.209 21.3333 98.4956 21.3333 95.6667C21.3333 92.8377 20.2095 90.1246 18.2091 88.1242C16.2087 86.1238 13.4956 85 10.6667 85C7.83769 85 5.12458 86.1238 3.12419 88.1242C1.12381 90.1246 0 92.8377 0 95.6667C0 98.4956 1.12381 101.209 3.12419 103.209C5.12458 105.21 7.83769 106.333 10.6667 106.333ZM21.3333 159.667C21.3333 162.496 20.2095 165.209 18.2091 167.209C16.2087 169.21 13.4956 170.333 10.6667 170.333C7.83769 170.333 5.12458 169.21 3.12419 167.209C1.12381 165.209 0 162.496 0 159.667C0 156.838 1.12381 154.125 3.12419 152.124C5.12458 150.124 7.83769 149 10.6667 149C13.4956 149 16.2087 150.124 18.2091 152.124C20.2095 154.125 21.3333 156.838 21.3333 159.667ZM53.3333 21C50.5044 21 47.7913 22.1238 45.7909 24.1242C43.7905 26.1246 42.6667 28.8377 42.6667 31.6667C42.6667 34.4956 43.7905 37.2087 45.7909 39.2091C47.7913 41.2095 50.5044 42.3333 53.3333 42.3333H181.333C184.162 42.3333 186.875 41.2095 188.876 39.2091C190.876 37.2087 192 34.4956 192 31.6667C192 28.8377 190.876 26.1246 188.876 24.1242C186.875 22.1238 184.162 21 181.333 21H53.3333ZM42.6667 95.6667C42.6667 92.8377 43.7905 90.1246 45.7909 88.1242C47.7913 86.1238 50.5044 85 53.3333 85H181.333C184.162 85 186.875 86.1238 188.876 88.1242C190.876 90.1246 192 92.8377 192 95.6667C192 98.4956 190.876 101.209 188.876 103.209C186.875 105.21 184.162 106.333 181.333 106.333H53.3333C50.5044 106.333 47.7913 105.21 45.7909 103.209C43.7905 101.209 42.6667 98.4956 42.6667 95.6667ZM53.3333 149C50.5044 149 47.7913 150.124 45.7909 152.124C43.7905 154.125 42.6667 156.838 42.6667 159.667C42.6667 162.496 43.7905 165.209 45.7909 167.209C47.7913 169.21 50.5044 170.333 53.3333 170.333H181.333C184.162 170.333 186.875 169.21 188.876 167.209C190.876 165.209 192 162.496 192 159.667C192 156.838 190.876 154.125 188.876 152.124C186.875 150.124 184.162 149 181.333 149H53.3333Z" fill="#1F456E"/>
</svg>
