<!DOCTYPE svg PUBLIC "-//W3C//DTD SVG 1.1//EN" "http://www.w3.org/Graphics/SVG/1.1/DTD/svg11.dtd">
<!-- Uploaded to: SVG Repo, www.svgrepo.com, Transformed by: SVG Repo Mixer Tools -->
<svg height="800px" width="800px" version="1.1" id="Layer_1" xmlns="http://www.w3.org/2000/svg" xmlns:xlink="http://www.w3.org/1999/xlink" viewBox="0 0 512 512" xml:space="preserve" fill="#000000">
<g id="SVGRepo_bgCarrier" stroke-width="0"/>
<g id="SVGRepo_tracerCarrier" stroke-linecap="round" stroke-linejoin="round"/>
<g id="SVGRepo_iconCarrier"> <circle style="fill:#ffa500;" cx="256" cy="256" r="256"/> <path style="fill:#1f456e;" d="M341.047,168.081l-85.04-85.566l-36.99,44.975l-27.024,62.914l72.494,72.356l-8.492,166.726 l72.582,72.061c83.022-24.5,148.468-89.947,172.97-172.966L341.047,168.081z"/> <polygon style="fill:#FFFFFF;" points="271.515,370.083 271.515,141.905 320.019,190.405 341.961,168.464 256.007,82.515 170.053,168.462 191.991,190.404 240.485,141.917 240.485,370.097 191.979,321.595 170.041,343.538 255.993,429.485 341.947,343.538 320.009,321.596 "/> <polygon style="fill:#9f92ef;" points="271.515,370.083 271.515,141.905 320.019,190.405 341.961,168.464 256.007,82.515 255.426,83.096 255.993,429.485 255.993,429.485 341.947,343.538 320.009,321.596 "/> </g>
</svg>