<svg width="192" height="192" viewBox="0 0 192 192" fill="none" xmlns="http://www.w3.org/2000/svg">
<g clip-path="url(#clip0_636_7824)">
<path d="M115.24 134.056H162.087V181M77.763 58.9444H30.9161V12M166 68.3653C160.747 55.3359 151.951 44.0447 140.613 35.7748C129.275 27.5049 115.851 22.5862 101.864 21.5815C87.8763 20.5768 73.8846 23.5239 61.4856 30.0887C49.0864 36.6535 38.7753 46.575 31.7213 58.7202M27 124.639C32.2533 137.668 41.0487 148.959 52.3867 157.229C63.7248 165.5 77.1622 170.412 91.1499 171.417C105.137 172.421 119.118 169.475 131.516 162.909C143.915 156.345 154.22 146.425 161.273 134.28" stroke="white" stroke-width="21" stroke-linecap="round" stroke-linejoin="round"/>
</g>
<defs>
<clipPath id="clip0_636_7824">
<rect width="161" height="191" fill="white" transform="translate(16 1)"/>
</clipPath>
</defs>
</svg>
